<svg width="31" height="30" viewBox="0 0 31 30" fill="none" xmlns="http://www.w3.org/2000/svg">
<path d="M9.05035 11.75C11.4503 9.05 16.8003 8.125 19.1753 8C22.5503 8 24.4254 10.625 25.1754 13.25C25.9254 15.875 20.6753 22.625 12.4253 23C4.17535 23.375 6.05035 15.125 9.05035 11.75Z" fill="#E2A977" fill-opacity="0.15"/>
<path d="M5.23958 16.1198H4.25V15.625C4.25 9.07693 9.57693 3.75 16.125 3.75C19.2966 3.75 22.2792 4.985 24.5216 7.22838L26.009 8.69297L25.3153 9.39755L23.8249 7.93099C21.7666 5.87167 19.0324 4.73958 16.125 4.73958C10.1232 4.73958 5.23958 9.62318 5.23958 15.625V16.1198Z" fill="#F36C21"/>
<path d="M16.1243 27.4997C12.9517 27.4997 9.97013 26.2647 7.72773 24.0213L6.30273 22.619L6.99643 21.9135L8.4244 23.3187C10.4827 25.377 13.217 26.5101 16.1243 26.5101C22.1262 26.5101 27.0098 21.6265 27.0098 15.6247V15.1299H27.9993V15.6247C27.9993 22.1727 22.6724 27.4997 16.1243 27.4997Z" fill="#F36C21"/>
<path d="M25.5267 9.6875H20.084V8.69792H25.0319V3.75H26.0215V9.19271L25.5267 9.6875Z" fill="#F36C21"/>
<path d="M7.2181 27.5H6.22852V22.0573L6.72331 21.5625H12.166V22.5521H7.2181V27.5Z" fill="#F36C21"/>
</svg>
