<svg width="37" height="39" viewBox="0 0 37 39" fill="none" xmlns="http://www.w3.org/2000/svg">
<path d="M35.8028 8.19062L19.2924 0.139883C19.103 0.0478316 18.8952 0 18.6845 0C18.4739 0 18.266 0.0478316 18.0766 0.139883L1.56588 8.19062C1.30698 8.31681 1.09384 8.52047 0.956049 8.7733C0.818258 9.02613 0.762665 9.31559 0.796992 9.60145L2.00642 19.6872C3.63188 33.2453 14.4085 38.2073 18.4238 38.9752C18.5961 39.0083 18.773 39.0083 18.9452 38.9752C22.9602 38.2073 33.7368 33.2445 35.3623 19.6873L36.5718 9.60147C36.6061 9.3156 36.5505 9.02614 36.4127 8.7733C36.2749 8.52047 36.0617 8.31681 35.8028 8.19062ZM32.6086 19.3579C31.2156 30.9771 22.3294 35.3774 18.6845 36.1978C15.0397 35.3774 6.15308 30.9771 4.76006 19.3579L3.668 10.2505L18.6845 2.9285L33.7007 10.2505L32.6086 19.3579Z" fill="#D9D9D9"/>
<circle cx="18.6834" cy="19.4998" r="10.4178" fill="#F36C21"/>
<path d="M24.0986 14.7336L16.8013 22.0314L13.2714 18.5017C13.1736 18.4038 13.0574 18.3262 12.9296 18.2732C12.8018 18.2202 12.6648 18.193 12.5264 18.1929C12.3881 18.1929 12.2511 18.2201 12.1232 18.2731C11.9954 18.326 11.8792 18.4036 11.7814 18.5014C11.6835 18.5992 11.6059 18.7154 11.5529 18.8432C11.5 18.971 11.4727 19.108 11.4727 19.2464C11.4726 19.3848 11.4999 19.5218 11.5528 19.6497C11.6057 19.7775 11.6833 19.8937 11.7811 19.9916L16.0561 24.2668C16.154 24.3646 16.2701 24.4423 16.398 24.4953C16.5258 24.5482 16.6629 24.5755 16.8013 24.5755C16.9397 24.5755 17.0767 24.5482 17.2045 24.4953C17.3324 24.4423 17.4486 24.3646 17.5464 24.2668L25.5889 16.2234C25.7864 16.0258 25.8974 15.7578 25.8973 15.4783C25.8973 15.1988 25.7862 14.9308 25.5886 14.7333C25.3909 14.5357 25.1229 14.4247 24.8435 14.4248C24.5641 14.4249 24.2961 14.5359 24.0986 14.7336Z" fill="white"/>
</svg>
