<svg width="65" height="32" viewBox="0 0 65 32" fill="none" xmlns="http://www.w3.org/2000/svg">
<path d="M6.4716 10.4762H9.06111C10.2942 10.4762 11.2078 10.1698 11.802 9.55708C12.3961 8.94433 12.6932 8.13105 12.6932 7.11724C12.6932 6.13685 12.3961 5.3737 11.802 4.8278C11.219 4.2819 10.4119 4.00895 9.3806 4.00895C8.45017 4.00895 7.67107 4.26519 7.04331 4.77767C6.41555 5.279 6.10167 5.93631 6.10167 6.74959H1.24212C1.24212 5.47954 1.58403 4.34318 2.26784 3.3405C2.96286 2.32669 3.92692 1.53569 5.16003 0.967507C6.40434 0.399325 7.77196 0.115234 9.2629 0.115234C11.8524 0.115234 13.8814 0.73355 15.3499 1.97018C16.8185 3.19567 17.5527 4.88908 17.5527 7.05039C17.5527 8.16448 17.2108 9.18943 16.527 10.1253C15.8432 11.0611 14.9464 11.7797 13.8366 12.281C15.2154 12.7712 16.2411 13.5065 16.9137 14.4869C17.5975 15.4673 17.9395 16.6259 17.9395 17.9628C17.9395 20.1241 17.1435 21.8565 15.5517 23.16C13.9711 24.4635 11.8748 25.1152 9.2629 25.1152C6.81911 25.1152 4.81812 24.4746 3.25993 23.1934C1.71294 21.9122 0.939453 20.2188 0.939453 18.1132H5.799C5.799 19.0268 6.1409 19.7732 6.82472 20.3525C7.51974 20.9319 8.3717 21.2215 9.3806 21.2215C10.5352 21.2215 11.4376 20.9207 12.0878 20.3191C12.7492 19.7064 13.0799 18.8987 13.0799 17.896C13.0799 15.4673 11.7347 14.2529 9.0443 14.2529H6.4716V10.4762Z" fill="#F36C21"/>
<path d="M29.7665 3.11523L35.9475 19.8075L42.1138 3.11523H46.9262V24.893H43.2176V17.7135L43.5855 8.11096L37.2573 24.893H34.5936L28.2801 8.12592L28.6481 17.7135V24.893H24.9395V3.11523H29.7665Z" fill="#5E5E5E"/>
<path d="M64.9395 16.9657C64.9395 19.4685 64.3802 21.4678 63.2617 22.9635C62.1433 24.4493 60.6422 25.1922 58.7584 25.1922C57.0121 25.1922 55.614 24.6088 54.5642 23.4422V31.1152H50.988V8.70925H54.2846L54.4317 10.3546C55.4815 9.05825 56.909 8.41011 58.7143 8.41011C60.6569 8.41011 62.1776 9.148 63.2765 10.6238C64.3851 12.0896 64.9395 14.1288 64.9395 16.7413V16.9657ZM61.378 16.6516C61.378 15.0362 61.0592 13.7548 60.4214 12.8075C59.7935 11.8602 58.8909 11.3866 57.7136 11.3866C56.2517 11.3866 55.2019 11.9998 54.5642 13.2263V20.4058C55.2117 21.6622 56.2713 22.2904 57.743 22.2904C58.8811 22.2904 59.769 21.8268 60.4067 20.8994C61.0542 19.9621 61.378 18.5461 61.378 16.6516Z" fill="#5E5E5E"/>
</svg>
