<svg width="24" height="18" viewBox="0 0 24 18" fill="none" xmlns="http://www.w3.org/2000/svg">
<path fill-rule="evenodd" clip-rule="evenodd" d="M13.6873 2.73644L19.2178 3.51726C19.4912 3.55587 19.6816 3.80882 19.643 4.08225C19.6044 4.35568 19.3514 4.54605 19.078 4.50744L13.5475 3.72662C13.2622 4.2747 12.6536 4.61033 12.007 4.51903C11.3603 4.42773 10.8684 3.93675 10.746 3.33109L5.21549 2.55026C4.94206 2.51165 4.7517 2.2587 4.7903 1.98527C4.82891 1.71184 5.08186 1.52147 5.35529 1.56008L10.8858 2.34091C11.1711 1.79282 11.7797 1.45719 12.4264 1.54849C13.073 1.63979 13.5649 2.13077 13.6873 2.73644Z" fill="#F36C21"/>
<path fill-rule="evenodd" clip-rule="evenodd" d="M1.53518 10L5 4.80278L8.46482 10H1.53518ZM1.01805 11C1.00609 11.0735 1 11.1481 1 11.2232C1 13.309 2.69095 15 4.77684 15H5.22316C7.30905 15 9 13.309 9 11.2232C9 11.1481 8.99391 11.0735 8.98195 11H1.01805ZM0.401135 9.8983L4.39907 3.90139V3.90139C4.68495 3.47258 5.31505 3.47258 5.60093 3.90139V3.90139L9.59887 9.8983C9.86043 10.2906 10 10.7516 10 11.2232C10 13.8613 7.86133 16 5.22316 16H4.77684C2.13867 16 0 13.8613 0 11.2232C0 10.7516 0.139575 10.2906 0.401135 9.8983Z" fill="#F36C21"/>
<path fill-rule="evenodd" clip-rule="evenodd" d="M15.5352 12L19 6.80278L22.4648 12H15.5352ZM15.018 13C15.0061 13.0735 15 13.1481 15 13.2232C15 15.309 16.691 17 18.7768 17H19.2232C21.309 17 23 15.309 23 13.2232C23 13.1481 22.9939 13.0735 22.9819 13H15.018ZM14.4011 11.8983L18.3991 5.90139V5.90139C18.6849 5.47258 19.3151 5.47258 19.6009 5.90139V5.90139L23.5989 11.8983C23.8604 12.2906 24 12.7516 24 13.2232C24 15.8613 21.8613 18 19.2232 18H18.7768C16.1387 18 14 15.8613 14 13.2232C14 12.7516 14.1396 12.2906 14.4011 11.8983Z" fill="#F36C21"/>
</svg>
