<svg width="24" height="24" viewBox="0 0 24 24" fill="none" xmlns="http://www.w3.org/2000/svg">
<path d="M12 24C18.6274 24 24 18.6274 24 12C24 5.37258 18.6274 0 12 0C5.37258 0 0 5.37258 0 12C0 18.6274 5.37258 24 12 24Z" fill="url(#paint0_linear_3593_5463)"/>
<path d="M9.8 17.5C9.41124 17.5 9.4773 17.3532 9.34322 16.9831L8.2 13.2206L17 8" fill="#C8DAEA"/>
<path d="M9.8 17.4997C10.1 17.4997 10.2326 17.3625 10.4 17.1997L12 15.6439L10.0042 14.4404" fill="#A9C9DD"/>
<path d="M10.004 14.4407L14.84 18.0136C15.3919 18.3181 15.7901 18.1605 15.9276 17.5013L17.8961 8.225C18.0976 7.41698 17.5881 7.0505 17.0602 7.29018L5.50116 11.7473C4.71215 12.0637 4.71675 12.5039 5.35734 12.7001L8.32364 13.6259L15.1909 9.29341C15.5151 9.09682 15.8127 9.20251 15.5685 9.41925" fill="url(#paint1_linear_3593_5463)"/>
<defs>
<linearGradient id="paint0_linear_3593_5463" x1="9.0012" y1="1.0008" x2="3.0012" y2="15" gradientUnits="userSpaceOnUse">
<stop stop-color="#37AEE2"/>
<stop offset="1" stop-color="#1E96C8"/>
</linearGradient>
<linearGradient id="paint1_linear_3593_5463" x1="10.4978" y1="12.7369" x2="11.78" y2="16.8843" gradientUnits="userSpaceOnUse">
<stop stop-color="#EFF7FC"/>
<stop offset="1" stop-color="white"/>
</linearGradient>
</defs>
</svg>
