<svg width="72" height="32" viewBox="0 0 72 32" fill="none" xmlns="http://www.w3.org/2000/svg">
<path d="M8.8998 19.0853C8.56736 18.8738 8.20943 18.7055 7.83462 18.5845C7.45934 18.4647 7.06767 18.4045 6.6738 18.4059C6.42931 18.4037 6.18548 18.4315 5.94774 18.4887C5.74704 18.5355 5.55586 18.6165 5.38254 18.7282C5.23426 18.824 5.10943 18.952 5.01734 19.1027C4.92953 19.2516 4.8844 19.4219 4.88691 19.5948C4.88051 19.748 4.91987 19.8997 4.99995 20.0303C5.08317 20.154 5.19505 20.2556 5.32602 20.3265C5.4889 20.4158 5.66287 20.4832 5.8434 20.5268C6.07125 20.5841 6.30201 20.6292 6.53467 20.6618L7.08248 20.7358C7.40057 20.7804 7.7146 20.8503 8.02157 20.9449C8.31332 21.0326 8.58924 21.1664 8.83893 21.3412C9.07679 21.5089 9.27433 21.7276 9.41717 21.9814C9.56954 22.2693 9.64446 22.592 9.63455 22.9177C9.64214 23.2909 9.55381 23.6598 9.37804 23.989C9.20892 24.2987 8.97271 24.5666 8.68676 24.7729C8.38025 24.9927 8.03728 25.1564 7.67376 25.2563C7.27624 25.3683 6.86502 25.424 6.45207 25.4218C6.17243 25.4204 5.89333 25.3971 5.61732 25.3521C5.3228 25.3076 5.03211 25.2406 4.74779 25.1518C4.47818 25.0617 4.21643 24.9496 3.96521 24.8164C3.71697 24.6894 3.48488 24.533 3.27393 24.3505L3.96521 23.327C4.11468 23.4622 4.27958 23.5791 4.45649 23.6754C4.8636 23.8987 5.30404 24.0546 5.76079 24.1371C5.99164 24.1802 6.22594 24.202 6.46076 24.2024C6.70337 24.2055 6.94553 24.1807 7.18247 24.1284C7.38914 24.0832 7.58728 24.0053 7.76941 23.8976C7.92683 23.8048 8.06191 23.6784 8.16504 23.5274C8.2643 23.3795 8.31589 23.2047 8.31286 23.0266C8.319 22.7251 8.14914 22.4478 7.8781 22.3167C7.45041 22.1172 6.99148 21.9935 6.52163 21.9509L5.90426 21.8638C5.60872 21.8227 5.31762 21.7542 5.03473 21.6591C4.76305 21.5695 4.50866 21.434 4.28259 21.2584C4.05894 21.0841 3.87637 20.8625 3.74783 20.6095C3.60103 20.318 3.52647 19.9954 3.53044 19.6689C3.5239 19.301 3.60908 18.9372 3.77826 18.6106C3.94133 18.3032 4.1717 18.0367 4.45215 17.8311C4.75257 17.6127 5.08983 17.4505 5.44776 17.352C5.84368 17.2394 6.25355 17.1837 6.6651 17.1865C7.19718 17.1796 7.72697 17.2575 8.23461 17.4174C8.69543 17.567 9.13411 17.7779 9.5389 18.0445L8.8998 19.0853ZM13.2257 19.695C13.5828 19.6917 13.9367 19.7629 14.2648 19.904C14.5733 20.0378 14.8492 20.2368 15.0735 20.4876C15.305 20.7515 15.4836 21.0575 15.5996 21.3891C15.7306 21.7625 15.7953 22.1561 15.7909 22.5519V22.7783V22.9961H11.7562C11.7853 23.2179 11.8561 23.4322 11.9649 23.6275C12.0588 23.7953 12.1843 23.9432 12.3345 24.063C12.4783 24.1754 12.6421 24.2596 12.8171 24.3113C12.9978 24.3645 13.1852 24.3909 13.3736 24.3897C13.6529 24.3875 13.9296 24.3359 14.1909 24.2372C14.4639 24.1345 14.718 23.9874 14.9431 23.8017L15.53 24.651C15.2229 24.9209 14.8631 25.1241 14.4735 25.2476C14.0914 25.3626 13.6943 25.4198 13.2953 25.4174C12.9118 25.4216 12.531 25.3521 12.1736 25.2128C11.847 25.0819 11.5509 24.8847 11.3041 24.6335C11.0528 24.3759 10.8574 24.069 10.7302 23.7321C10.5898 23.3562 10.5205 22.9575 10.5259 22.5562C10.5217 22.1597 10.5894 21.7657 10.7258 21.3934C10.8486 21.0571 11.0379 20.749 11.2823 20.4876C11.5273 20.2332 11.8238 20.0342 12.1519 19.904C12.4925 19.7635 12.8573 19.691 13.2257 19.6906V19.695ZM13.204 20.7533C13.0113 20.7496 12.8196 20.7821 12.6388 20.8491C12.4762 20.9087 12.328 21.0022 12.204 21.1234C12.0814 21.2497 11.9827 21.3973 11.9128 21.5589C11.8342 21.7305 11.7801 21.9123 11.7519 22.0989H14.5692C14.5355 21.7308 14.3829 21.3837 14.1344 21.1104C13.886 20.8657 13.5477 20.7349 13.1997 20.7489L13.204 20.7533ZM19.5038 19.695C19.8941 19.6913 20.2813 19.7653 20.6428 19.9128C20.9803 20.0564 21.2784 20.2789 21.5124 20.5616L20.7515 21.3717C20.5766 21.1947 20.3739 21.0476 20.1516 20.9362C19.9302 20.8371 19.6897 20.788 19.4472 20.7925C19.2292 20.7902 19.0131 20.8332 18.8125 20.9188C18.6212 21.0087 18.4509 21.1378 18.3125 21.2976C18.1645 21.4564 18.0493 21.6429 17.9734 21.8464C17.8105 22.304 17.8105 22.804 17.9734 23.2617C18.0488 23.4668 18.164 23.6547 18.3125 23.8148C18.4557 23.9677 18.6288 24.0893 18.8212 24.1719C19.0218 24.2575 19.2379 24.3005 19.4559 24.2982C19.712 24.2987 19.9648 24.2406 20.195 24.1284C20.4148 24.0254 20.6172 23.8888 20.795 23.7234L21.5298 24.5639C21.2857 24.847 20.979 25.0692 20.6342 25.2128C20.2743 25.3607 19.8884 25.4348 19.4994 25.4305C19.0976 25.4363 18.6986 25.3623 18.3255 25.2128C17.6404 24.9383 17.1033 24.3861 16.8473 23.6929C16.5748 22.9597 16.5748 22.1528 16.8473 21.4196C17.1034 20.7339 17.6349 20.1872 18.3125 19.9128C18.6894 19.7601 19.0929 19.6845 19.4994 19.6906L19.5038 19.695ZM27.6121 22.9699C27.6222 23.353 27.548 23.7337 27.3948 24.0848C27.2646 24.3774 27.0716 24.6376 26.8296 24.8469C26.5937 25.0452 26.32 25.1933 26.0252 25.2824C25.4189 25.4684 24.7708 25.4684 24.1644 25.2824C23.8684 25.1932 23.5934 25.0451 23.3558 24.8469C23.1122 24.639 22.9189 24.3784 22.7906 24.0848C22.6402 23.7329 22.5675 23.3526 22.5776 22.9699V19.8344H23.7688V22.8828C23.7628 23.1091 23.7966 23.3347 23.8688 23.5492C23.929 23.7138 24.0256 23.8627 24.1514 23.9847C24.2747 24.1007 24.4237 24.1857 24.5862 24.2329C24.9265 24.3351 25.2893 24.3351 25.6296 24.2329C25.7921 24.1857 25.9411 24.1007 26.0644 23.9847C26.1902 23.8627 26.2868 23.7138 26.347 23.5492C26.4207 23.335 26.456 23.1094 26.4513 22.8828V19.8344H27.6426L27.6121 22.9699ZM31.9381 19.695C32.1026 19.6943 32.267 19.7074 32.4293 19.7342C32.578 19.758 32.7237 19.7974 32.8641 19.8518L32.5815 21.0276C32.444 20.9586 32.2977 20.9088 32.1467 20.8796C31.9938 20.8465 31.838 20.8289 31.6815 20.8273C31.5031 20.8251 31.3259 20.8576 31.1598 20.9231C31.0039 20.9851 30.8641 21.0819 30.7511 21.2062C30.6326 21.3406 30.5424 21.4976 30.4859 21.6678C30.4192 21.867 30.3868 22.0761 30.3903 22.2862V25.2781H29.1816V19.8344H30.3555V20.4484C30.5229 20.1982 30.7561 19.9993 31.0294 19.8736C31.3143 19.7485 31.6227 19.6861 31.9337 19.6906L31.9381 19.695ZM35.9162 19.695C36.2733 19.6917 36.6271 19.7629 36.9553 19.904C37.2637 20.0378 37.5396 20.2368 37.7639 20.4876C38.0031 20.7497 38.1892 21.0559 38.3117 21.3891C38.4426 21.7626 38.5074 22.1561 38.503 22.5519V22.7783V22.9961H34.4423C34.4714 23.2179 34.5422 23.4322 34.651 23.6275C34.7449 23.7953 34.8704 23.9432 35.0205 24.063C35.1644 24.1754 35.3281 24.2596 35.5031 24.3113C35.6838 24.3645 35.8713 24.3909 36.0596 24.3897C36.3389 24.3875 36.6156 24.3359 36.877 24.2372C37.1499 24.1345 37.4041 23.9874 37.6291 23.8017L38.2204 24.6466C37.9134 24.9167 37.5536 25.1199 37.1639 25.2432C36.7818 25.3582 36.3847 25.4155 35.9857 25.4131C35.6022 25.4172 35.2215 25.3477 34.864 25.2084C34.5374 25.0775 34.2413 24.8803 33.9945 24.6292C33.7432 24.3715 33.5478 24.0646 33.4206 23.7277C33.2802 23.3519 33.2109 22.9531 33.2163 22.5519C33.2121 22.1553 33.2799 21.7614 33.4163 21.3891C33.5364 21.0534 33.7227 20.7454 33.9641 20.4833C34.209 20.2288 34.5055 20.0299 34.8336 19.8997C35.1759 19.7601 35.5422 19.689 35.9118 19.6906L35.9162 19.695ZM35.8944 20.7533C35.7017 20.7496 35.51 20.7821 35.3292 20.8491C35.1666 20.9087 35.0184 21.0022 34.8945 21.1234C34.7718 21.2497 34.6731 21.3973 34.6032 21.5589C34.5247 21.7305 34.4705 21.9123 34.4423 22.0989H37.2683C37.2346 21.7308 37.082 21.3837 36.8335 21.1104C36.5831 20.8634 36.2411 20.7324 35.8901 20.7489L35.8944 20.7533ZM43.5941 17.1604C43.9379 17.1592 44.2806 17.1972 44.6158 17.2736C44.934 17.346 45.242 17.4572 45.5332 17.6046C45.8116 17.7458 46.0703 17.923 46.3027 18.1316C46.5294 18.3334 46.7243 18.5683 46.881 18.8284L45.8114 19.5426C45.5728 19.1903 45.252 18.9018 44.8767 18.7021C44.4748 18.4911 44.0259 18.3862 43.5724 18.3972C43.1885 18.3932 42.8075 18.4642 42.4507 18.6063C42.1237 18.7425 41.8279 18.944 41.5812 19.1985C41.3262 19.4608 41.1266 19.7719 40.9942 20.1131C40.7104 20.8712 40.7104 21.7066 40.9942 22.4648C41.1266 22.806 41.3262 23.117 41.5812 23.3793C41.8279 23.6338 42.1237 23.8353 42.4507 23.9716C42.8075 24.1137 43.1885 24.1847 43.5724 24.1806C44.4553 24.2 45.2881 23.7707 45.7853 23.0396L46.8288 23.8061C46.6591 24.0551 46.4573 24.2806 46.2288 24.4768C46.0045 24.6804 45.7563 24.8558 45.4897 24.9994C45.2051 25.1424 44.9044 25.2506 44.5941 25.3216C43.7011 25.5195 42.7697 25.4498 41.9159 25.1213C40.9199 24.7309 40.1318 23.9416 39.7421 22.9438C39.3344 21.8843 39.3344 20.7109 39.7421 19.6515C40.1318 18.6537 40.9199 17.8643 41.9159 17.474C42.4498 17.2617 43.0197 17.1552 43.5941 17.1604ZM50.5938 19.6776C50.9927 19.673 51.3886 19.747 51.759 19.8953C52.1039 20.0332 52.4185 20.2373 52.6851 20.4963C52.9477 20.7543 53.1561 21.0623 53.2981 21.4022C53.593 22.1311 53.593 22.9465 53.2981 23.6754C53.1561 24.0153 52.9477 24.3233 52.6851 24.5813C52.4185 24.8403 52.1039 25.0444 51.759 25.1823C51.0095 25.474 50.1782 25.474 49.4287 25.1823C49.0834 25.0452 48.7686 24.841 48.5026 24.5813C48.2376 24.3293 48.0248 24.0274 47.8766 23.6929C47.5817 22.9639 47.5817 22.1486 47.8766 21.4196C48.0176 21.0803 48.2245 20.7724 48.4852 20.5137C48.7512 20.254 49.066 20.0498 49.4113 19.9128C49.7881 19.7601 50.1917 19.6845 50.5982 19.6906L50.5938 19.6776ZM50.5938 20.7968C50.3631 20.7944 50.1342 20.8373 49.92 20.9231C49.7178 21.0039 49.5343 21.1255 49.3809 21.2802C49.2271 21.4378 49.1059 21.6243 49.0243 21.8289C48.8504 22.2846 48.8504 22.7886 49.0243 23.2443C49.1059 23.449 49.2271 23.6354 49.3809 23.793C49.5344 23.9476 49.7179 24.0691 49.92 24.1501C50.3532 24.3201 50.8345 24.3201 51.2677 24.1501C51.6783 23.9889 52.0051 23.6663 52.172 23.2574C52.346 22.8017 52.346 22.2977 52.172 21.842C52.0898 21.6367 51.9671 21.45 51.8112 21.2933C51.6559 21.1388 51.471 21.0174 51.2677 20.9362C51.0549 20.8509 50.8274 20.808 50.5982 20.8099L50.5938 20.7968ZM57.0849 19.6776C57.7504 19.6518 58.3871 19.9504 58.7935 20.4789V17.082H59.9804V25.2737H58.7935V24.6205C58.604 24.863 58.3636 25.0607 58.0892 25.1997C57.7766 25.3516 57.4322 25.4263 57.0849 25.4174C56.3598 25.4244 55.6637 25.1332 55.1589 24.6118C54.9068 24.3472 54.7102 24.0348 54.5807 23.6929C54.3012 22.9519 54.3012 22.1344 54.5807 21.3934C54.7119 21.0563 54.9084 20.7484 55.1589 20.4876C55.6637 19.9662 56.3598 19.675 57.0849 19.6819V19.6776ZM57.2284 20.7968C56.992 20.7931 56.7577 20.8406 56.5414 20.9362C56.3463 21.0239 56.1716 21.1515 56.0284 21.3107C55.8864 21.4724 55.7771 21.6602 55.7067 21.8638C55.5556 22.3011 55.5556 22.7765 55.7067 23.2138C55.7771 23.4174 55.8864 23.6052 56.0284 23.7669C56.1716 23.9261 56.3463 24.0537 56.5414 24.1414C56.9755 24.3224 57.4638 24.3224 57.8979 24.1414C58.0938 24.0566 58.2699 23.9321 58.4153 23.7756C58.5569 23.6251 58.6689 23.4493 58.7457 23.2574C58.9046 22.8095 58.9046 22.3204 58.7457 21.8725C58.671 21.6694 58.5573 21.483 58.4109 21.3238C58.2653 21.1676 58.0892 21.0431 57.8936 20.9579C57.6846 20.8626 57.458 20.8121 57.2284 20.8099V20.7968ZM63.9238 19.6776C64.2809 19.6742 64.6348 19.7454 64.9629 19.8866C65.2714 20.0202 65.5473 20.2193 65.7715 20.4702C66.003 20.734 66.1817 21.0401 66.2976 21.3717C66.4287 21.7451 66.4934 22.1386 66.4889 22.5344V22.7609V22.9787H62.476C62.5044 23.2006 62.5753 23.415 62.6847 23.6101C62.7785 23.778 62.904 23.9259 63.0542 24.0456C63.198 24.1581 63.3618 24.2423 63.5368 24.2939C63.7175 24.347 63.905 24.3734 64.0933 24.3722C64.3726 24.3701 64.6493 24.3185 64.9107 24.2198C65.1836 24.1171 65.4377 23.9699 65.6628 23.7843L66.2541 24.6292C65.9469 24.8991 65.5872 25.1022 65.1976 25.2258C64.8155 25.3409 64.4184 25.3981 64.0194 25.3957C63.6359 25.3998 63.2551 25.3303 62.8977 25.191C62.5711 25.0601 62.275 24.8629 62.0282 24.6118C61.7769 24.3541 61.5815 24.0472 61.4543 23.7103C61.3139 23.3344 61.2446 22.9357 61.25 22.5344C61.2458 22.1379 61.3136 21.7439 61.4499 21.3717C61.5728 21.0353 61.7621 20.7273 62.0064 20.4658C62.2514 20.2114 62.5479 20.0124 62.876 19.8823C63.21 19.7525 63.5655 19.6875 63.9238 19.6906V19.6776ZM67.0584 25.2607V24.9994H67.1671V24.9427H66.8845V24.9994H67.0063V25.2737L67.0584 25.2607ZM67.6019 25.2607V24.9297H67.5149L67.4149 25.1561L67.3149 24.9297H67.228V25.2607H67.2888V25.0124L67.3802 25.2258H67.441L67.5323 25.0124V25.2607H67.6019ZM63.902 20.7358C63.7093 20.7321 63.5176 20.7646 63.3368 20.8317C63.1742 20.8913 63.026 20.9848 62.9021 21.106C62.7794 21.2323 62.6807 21.3799 62.6108 21.5415C62.5323 21.7131 62.4782 21.8949 62.4499 22.0815H65.2672C65.2363 21.7088 65.0835 21.3567 64.8324 21.0799C64.5801 20.8475 64.2442 20.728 63.902 20.7489V20.7358Z" fill="#F79E1B"/>
<path d="M12.7955 14.0573H11.4651V7.27221L9.06085 13.2429H7.6609L5.26534 7.33754V14.0573H3.92627V5.81329H5.96532L8.36088 11.7056L10.7521 5.81329H12.7911L12.7955 14.0573ZM19.7952 14.0573H18.5648V13.3823C18.3683 13.6338 18.1189 13.839 17.8344 13.9833C17.5107 14.1392 17.1544 14.2154 16.7953 14.2054C16.0424 14.2134 15.3192 13.911 14.7954 13.3692C14.5354 13.0984 14.3315 12.7787 14.1954 12.4285C13.9053 11.6596 13.9053 10.811 14.1954 10.042C14.3316 9.6919 14.5355 9.37222 14.7954 9.10129C15.3192 8.55946 16.0424 8.25713 16.7953 8.26515C17.1548 8.25561 17.5113 8.33331 17.8344 8.49161C18.1188 8.63794 18.368 8.84449 18.5648 9.09695V8.41756H19.7952V14.0573ZM16.9388 9.42793C16.6935 9.42374 16.4503 9.47277 16.2258 9.57164C16.024 9.66261 15.8434 9.7946 15.6954 9.95923C15.5479 10.1275 15.4343 10.3227 15.3606 10.5341C15.2036 10.9883 15.2036 11.4822 15.3606 11.9364C15.435 12.1484 15.5502 12.3437 15.6997 12.5113C15.8476 12.6761 16.0283 12.8081 16.2301 12.8989C16.6808 13.0876 17.1881 13.0876 17.6388 12.8989C17.8411 12.8106 18.0231 12.6817 18.1735 12.52C18.3251 12.3541 18.4432 12.1604 18.5213 11.9495C18.6858 11.4846 18.6858 10.9772 18.5213 10.5123C18.4432 10.3015 18.3251 10.1077 18.1735 9.94181C18.0229 9.7803 17.8409 9.65136 17.6388 9.56292C17.4177 9.46862 17.179 9.4226 16.9388 9.42793ZM25.4341 9.82858C25.3312 9.76935 25.2253 9.71557 25.1167 9.66745C24.9753 9.60587 24.8301 9.5535 24.682 9.51067C24.522 9.46224 24.3594 9.42298 24.195 9.39309C24.0229 9.36128 23.8483 9.34525 23.6733 9.34518C23.3984 9.32946 23.1249 9.39454 22.8864 9.53243C22.7133 9.63356 22.6072 9.8195 22.6081 10.0202C22.605 10.1088 22.6309 10.1961 22.682 10.2685C22.7338 10.3379 22.8007 10.3945 22.8777 10.434C22.9712 10.4816 23.0706 10.5167 23.1733 10.5385C23.2864 10.5646 23.4081 10.5878 23.5385 10.6082L24.1211 10.6953C24.639 10.749 25.1345 10.9349 25.5602 11.2353C25.9176 11.501 26.121 11.9264 26.1036 12.3719C26.1062 12.6305 26.0465 12.886 25.9297 13.1166C25.8076 13.3393 25.6367 13.5314 25.4298 13.6784C25.187 13.8529 24.9144 13.9813 24.6254 14.0573C24.271 14.1519 23.9053 14.1974 23.5385 14.1923C23.3936 14.1923 23.2255 14.1836 23.0342 14.1662C22.8276 14.1465 22.6227 14.1116 22.4212 14.0616C22.1954 14.005 21.9745 13.9308 21.7603 13.8395C21.5331 13.7426 21.3185 13.6183 21.1212 13.4694L21.6908 12.5461C21.7958 12.6275 21.9062 12.7017 22.0212 12.7682C22.1501 12.8415 22.2854 12.9028 22.4255 12.9511C22.5884 13.0071 22.7556 13.0494 22.9255 13.0774C23.131 13.1109 23.339 13.1269 23.5472 13.1253C23.8767 13.144 24.2055 13.0796 24.5037 12.9381C24.6994 12.8477 24.8262 12.6531 24.8298 12.4372C24.8268 12.2729 24.7376 12.1223 24.595 12.0409C24.3673 11.9141 24.1155 11.8369 23.8559 11.8145L23.269 11.7361C22.7509 11.694 22.2559 11.5035 21.8429 11.1874C21.519 10.9133 21.338 10.5058 21.3516 10.0812C21.3481 9.81925 21.4046 9.56 21.5169 9.32341C21.6245 9.09893 21.784 8.90336 21.9821 8.75289C22.2016 8.58997 22.4492 8.46892 22.7125 8.3958C23.028 8.3076 23.3545 8.26508 23.682 8.2695C24.1044 8.26709 24.5253 8.31979 24.9341 8.42628C25.2981 8.51679 25.6458 8.66372 25.9645 8.86177L25.4341 9.82858ZM31.2687 9.53243H29.0948V11.9887C29.0945 12.1548 29.1225 12.3197 29.1774 12.4764C29.2174 12.5976 29.2826 12.709 29.3687 12.8031C29.4469 12.8869 29.5437 12.9511 29.6513 12.9903C29.7642 13.0313 29.8834 13.0519 30.0035 13.0513C30.2044 13.0497 30.4033 13.0113 30.5904 12.9381C30.7816 12.8667 30.9651 12.7762 31.1382 12.6681L31.6252 13.6523C31.3857 13.8127 31.129 13.9456 30.86 14.0486C30.5527 14.1627 30.2269 14.2189 29.8991 14.2141C29.3513 14.246 28.8143 14.0525 28.4122 13.6784C28.0169 13.2188 27.8227 12.6193 27.8731 12.0148V9.5368H26.7558V8.41756H27.8731V6.71042H29.1079V8.41756H31.2817L31.2687 9.53243ZM35.0511 8.26515C35.4214 8.26047 35.7886 8.33314 36.1293 8.47853C36.4495 8.61708 36.7358 8.82363 36.9684 9.08388C37.2093 9.35787 37.3953 9.67576 37.5162 10.0202C37.6512 10.4078 37.7174 10.8161 37.7119 11.2266V11.4617V11.6838H33.5251C33.5556 11.9134 33.6294 12.1351 33.7425 12.3371C33.8413 12.5052 33.9712 12.653 34.1251 12.7726C34.2742 12.8887 34.4438 12.9759 34.625 13.0295C34.8127 13.0853 35.0075 13.1132 35.2033 13.1123C35.5002 13.113 35.7948 13.0599 36.0728 12.9555C36.3542 12.8539 36.6171 12.7067 36.851 12.52L37.4641 13.391C37.1454 13.6706 36.7724 13.8812 36.3685 14.0094C35.9723 14.1294 35.5606 14.1895 35.1468 14.1879C34.7424 14.202 34.3393 14.1369 33.9599 13.9963C33.617 13.862 33.306 13.6573 33.0468 13.3953C32.786 13.1277 32.5832 12.8089 32.4512 12.459C32.3053 12.0693 32.233 11.6558 32.2382 11.2396C32.233 10.8285 32.3023 10.4198 32.4425 10.0333C32.5701 9.68394 32.7668 9.364 33.0208 9.09259C33.2653 8.83232 33.5615 8.62613 33.8903 8.48724C34.2584 8.33639 34.6534 8.2623 35.0511 8.2695V8.26515ZM35.0294 9.3626C34.8292 9.35891 34.6301 9.39289 34.4424 9.46276C34.2792 9.52744 34.1312 9.62531 34.0077 9.75019C33.8813 9.87621 33.7783 10.0237 33.7033 10.1857C33.6171 10.3664 33.5571 10.5585 33.5251 10.7562H36.4467C36.4077 10.3724 36.2425 10.0124 35.9772 9.73277C35.7243 9.48597 35.3823 9.35241 35.0294 9.3626ZM41.9856 8.26515C42.156 8.26407 42.3261 8.27717 42.4943 8.30433C42.643 8.33024 42.7886 8.37109 42.9291 8.42628L42.6334 9.64567C42.4959 9.57578 42.3497 9.52452 42.1987 9.49325C42.0399 9.45977 41.8783 9.44226 41.7161 9.44099C41.5316 9.43924 41.3485 9.47325 41.177 9.54114C41.011 9.60469 40.8622 9.70609 40.7422 9.83729C40.6182 9.97656 40.5235 10.1395 40.4639 10.3164C40.3946 10.5225 40.3608 10.739 40.364 10.9566V14.0616H39.1336V8.40014H40.3509V9.03597C40.5232 8.78297 40.7605 8.58134 41.0378 8.45241C41.3328 8.32526 41.6515 8.26289 41.9726 8.2695L41.9856 8.26515ZM46.1898 8.26515C46.5951 8.261 46.9972 8.33799 47.3724 8.49161C47.7298 8.6383 48.0461 8.86999 48.2941 9.16663L47.5072 10.0072C47.3247 9.82935 47.1148 9.68228 46.8854 9.57164C46.6558 9.4685 46.4066 9.4165 46.155 9.41922C45.9296 9.41707 45.7061 9.46155 45.4985 9.54986C45.2979 9.63494 45.1173 9.76101 44.9681 9.92003C44.8159 10.0855 44.6977 10.2794 44.6203 10.4906C44.4508 10.965 44.4508 11.4837 44.6203 11.9582C44.6978 12.1694 44.816 12.3632 44.9681 12.5287C45.1174 12.6876 45.298 12.8137 45.4985 12.8989C45.7061 12.9872 45.9296 13.0317 46.155 13.0295C46.4164 13.032 46.675 12.9754 46.9115 12.864C47.1402 12.7523 47.35 12.6053 47.5332 12.4285L48.2897 13.2778C48.0366 13.5725 47.7179 13.8037 47.3593 13.9528C46.9857 14.1065 46.585 14.1835 46.1811 14.1792C45.7644 14.1851 45.3506 14.1081 44.9638 13.9528C44.256 13.6702 43.6992 13.103 43.429 12.3893C43.1465 11.6295 43.1465 10.7931 43.429 10.0333C43.6992 9.31964 44.256 8.7524 44.9638 8.46983C45.3511 8.32395 45.7632 8.25588 46.1768 8.2695L46.1898 8.26515ZM54.8286 14.0573H53.5982V13.3823C53.4017 13.6338 53.1523 13.839 52.8678 13.9833C52.5441 14.1392 52.1878 14.2154 51.8287 14.2054C51.0758 14.2134 50.3526 13.911 49.8288 13.3692C49.5688 13.0984 49.3649 12.7787 49.2288 12.4285C48.9387 11.6596 48.9387 10.811 49.2288 10.042C49.365 9.6919 49.5689 9.37222 49.8288 9.10129C50.3526 8.55946 51.0758 8.25713 51.8287 8.26515C52.1882 8.25561 52.5447 8.33331 52.8678 8.49161C53.1522 8.63794 53.4015 8.84449 53.5982 9.09695V8.41756H54.8286V14.0573ZM51.9765 9.42793C51.7313 9.42374 51.4881 9.47277 51.2635 9.57164C51.0618 9.66261 50.8812 9.7946 50.7331 9.95923C50.5857 10.1275 50.472 10.3227 50.3983 10.5341C50.2413 10.9883 50.2413 11.4822 50.3983 11.9364C50.472 12.1478 50.5857 12.343 50.7331 12.5113C50.8811 12.676 51.0617 12.808 51.2635 12.8989C51.7143 13.0871 52.2214 13.0871 52.6722 12.8989C52.8744 12.8105 53.0564 12.6816 53.2069 12.52C53.3591 12.3545 53.4773 12.1607 53.5547 11.9495C53.7199 11.4847 53.7199 10.9771 53.5547 10.5123C53.4773 10.3012 53.3591 10.1073 53.2069 9.94181C53.0563 9.7803 52.8744 9.65136 52.6722 9.56292C52.4537 9.46995 52.2182 9.42397 51.9809 9.42793H51.9765ZM59.4936 8.2695C59.664 8.26843 59.8341 8.28154 60.0023 8.3087C60.151 8.3346 60.2966 8.37544 60.4371 8.43063L60.1414 9.65002C60.0039 9.58013 59.8577 9.52888 59.7067 9.4976C59.5479 9.46418 59.3863 9.44668 59.2241 9.44535C59.0396 9.44349 58.8565 9.47749 58.685 9.54551C58.5191 9.60905 58.3702 9.71045 58.2502 9.84165C58.1262 9.98092 58.0315 10.1439 57.972 10.3207C57.9026 10.5269 57.8688 10.7434 57.872 10.9609V14.066H56.6416V8.40451H57.872V9.04033C58.0447 8.78498 58.2837 8.5817 58.5632 8.45241C58.8582 8.32539 59.1769 8.26302 59.498 8.2695H59.4936ZM63.5283 8.2695C63.8878 8.25997 64.2443 8.33765 64.5674 8.49595C64.8517 8.6424 65.1009 8.84893 65.2978 9.10129V5.57812H66.5282V14.0573H65.2978V13.3823C65.1012 13.6338 64.8519 13.839 64.5674 13.9833C64.2436 14.1392 63.8874 14.2154 63.5283 14.2054C62.7753 14.2134 62.0522 13.911 61.5283 13.3692C61.2638 13.0994 61.0554 12.7797 60.9153 12.4285C60.6252 11.6596 60.6252 10.811 60.9153 10.042C61.0515 9.6919 61.2554 9.37222 61.5153 9.10129C62.0391 8.55946 62.7623 8.25713 63.5152 8.26515L63.5283 8.2695ZM67.9629 13.539C68.012 13.5379 68.0608 13.5468 68.1064 13.5652C68.1501 13.5835 68.19 13.6101 68.2237 13.6436C68.2568 13.6759 68.2834 13.7144 68.302 13.7568C68.3402 13.8458 68.3402 13.9465 68.302 14.0355C68.2833 14.0779 68.2567 14.1163 68.2237 14.1487C68.1899 14.182 68.15 14.2086 68.1064 14.2271C68.0612 14.2473 68.0123 14.2577 67.9629 14.2576C67.8165 14.2597 67.683 14.174 67.6238 14.0399C67.5856 13.9509 67.5856 13.8501 67.6238 13.7612C67.6609 13.6738 67.7313 13.6048 67.8194 13.5695C67.8661 13.5493 67.9164 13.5389 67.9672 13.539H67.9629ZM67.9629 14.1792C68.0002 14.1797 68.0373 14.1723 68.0716 14.1575C68.1041 14.1427 68.1336 14.122 68.1585 14.0965C68.2662 13.9864 68.2662 13.8103 68.1585 13.7002C68.1337 13.6745 68.1042 13.6538 68.0716 13.6392C68.0357 13.6318 67.9987 13.6318 67.9629 13.6392C67.927 13.6322 67.8901 13.6322 67.8542 13.6392C67.7759 13.6773 67.7198 13.7498 67.7028 13.8353C67.6857 13.9208 67.7095 14.0094 67.7672 14.0747C67.7921 14.1004 67.8216 14.121 67.8542 14.1357C67.8886 14.1568 67.9272 14.1702 67.9672 14.1749L67.9629 14.1792ZM67.9629 13.7437C67.9988 13.7417 68.0342 13.7525 68.0629 13.7742C68.0862 13.7934 68.099 13.8224 68.0976 13.8526C68.0992 13.8785 68.0897 13.9038 68.0716 13.9223C68.0501 13.9424 68.0226 13.9547 67.9933 13.9571L68.102 14.0834H68.015L67.915 13.9571H67.8846V14.0834H67.8151V13.7481L67.9629 13.7437ZM67.8803 13.8047V13.8918H67.9629C67.9771 13.8959 67.9922 13.8959 68.0064 13.8918C68.0118 13.8808 68.0118 13.8679 68.0064 13.857C68.0126 13.8462 68.0126 13.8329 68.0064 13.8221C67.9921 13.8182 67.9771 13.8182 67.9629 13.8221L67.8803 13.8047ZM63.6543 9.4497C63.4091 9.44552 63.1659 9.49454 62.9413 9.59341C62.7396 9.68438 62.559 9.81638 62.4109 9.98101C62.2635 10.1493 62.1498 10.3445 62.0761 10.5559C61.9191 11.0101 61.9191 11.504 62.0761 11.9582C62.1498 12.1696 62.2635 12.3648 62.4109 12.5331C62.5589 12.6978 62.7396 12.8298 62.9413 12.9206C63.3921 13.1089 63.8992 13.1089 64.35 12.9206C64.5522 12.8323 64.7342 12.7034 64.8847 12.5418C65.0518 12.3688 65.1807 12.1625 65.263 11.9364C65.4278 11.4716 65.4278 10.9641 65.263 10.4993C65.1855 10.2881 65.0673 10.0943 64.9152 9.92875C64.7646 9.76724 64.5826 9.6383 64.3804 9.54986C64.1583 9.46016 63.9197 9.4186 63.6804 9.42793L63.6543 9.4497Z" fill="#EB001B"/>
</svg>
