<svg width="72" height="32" viewBox="0 0 72 32" fill="none" xmlns="http://www.w3.org/2000/svg">
<path fill-rule="evenodd" clip-rule="evenodd" d="M30.4633 16.7695L27.6795 24.2689L27.3826 22.7452C26.6894 20.8767 25.1884 18.9165 23.4404 18.1221L25.9871 27.7519L28.9976 27.7505L33.4746 16.7695H30.4633Z" fill="#1B548E"/>
<path fill-rule="evenodd" clip-rule="evenodd" d="M32.8496 27.7618L34.6292 16.7578H37.4732L35.6923 27.7618H32.8496Z" fill="#1B548E"/>
<path fill-rule="evenodd" clip-rule="evenodd" d="M46.0091 17.0294C45.4471 16.8076 44.5604 16.5664 43.4603 16.5664C40.6468 16.5664 38.6703 18.0603 38.653 20.1972C38.6349 21.7799 40.0664 22.6627 41.1424 23.1885C42.253 23.7266 42.6239 24.072 42.6204 24.5534C42.6096 25.2906 41.7319 25.6267 40.9162 25.6267C39.7794 25.6267 39.1735 25.4608 38.2415 25.0515L37.8721 24.876L37.4741 27.3387C38.1395 27.6452 39.3679 27.9109 40.6447 27.9246C43.6304 27.9246 45.573 26.4476 45.5961 24.1669C45.6081 22.9115 44.8482 21.9612 43.2058 21.1767C42.2144 20.6666 41.6013 20.3285 41.6103 19.8115C41.6112 19.3549 42.1247 18.8656 43.2399 18.8656C44.1714 18.8501 44.8412 19.0635 45.3684 19.2886L45.6221 19.4147L46.0091 17.0294ZM53.3034 16.7696H51.1063C50.425 16.7696 49.9144 16.9635 49.6137 17.6828L45.3918 27.7655H48.3789C48.3789 27.7655 48.8673 26.4085 48.9778 26.111C49.3036 26.111 52.2048 26.1177 52.619 26.1177C52.7069 26.5014 52.9653 27.7655 52.9653 27.7655H55.6064L53.3034 16.7696ZM49.7961 23.8603C50.0322 23.2288 50.9291 20.7846 50.9291 20.7846C50.9116 20.8144 51.1624 20.1481 51.3073 19.7362L51.4967 20.6847C51.4967 20.6847 52.0432 23.3106 52.1572 23.8603H49.7961Z" fill="#1B548E"/>
<path fill-rule="evenodd" clip-rule="evenodd" d="M25.0972 16.7637H20.5102L20.4834 16.9532C24.0497 17.8644 26.403 20.1019 27.3826 22.7479L26.3857 17.6906C26.2145 16.9949 25.7153 16.7882 25.0972 16.7637Z" fill="#E89F3E"/>
<path fill-rule="evenodd" clip-rule="evenodd" d="M11.9059 14.1037H10.0921L8 4.68252L10.0044 4.34766L11.436 11.7207L15.082 4.44505H17.0074L11.9059 14.1037Z" fill="#1B548E"/>
<path fill-rule="evenodd" clip-rule="evenodd" d="M21.3379 11.0242H17.0129C16.8948 12.3342 17.5042 12.9058 18.5367 12.9058C19.4018 12.9058 20.1628 12.585 20.9817 12.0694L20.9753 13.3794C20.1721 13.8812 19.2439 14.2018 18.1556 14.2018C16.2723 14.2018 15.0285 13.1286 15.4023 10.7033C15.7392 8.51539 17.2546 7.19166 19.0125 7.19166C21.0355 7.19166 21.7082 8.7107 21.4142 10.6201C21.3929 10.7594 21.3528 10.9266 21.3379 11.0242ZM18.7927 8.34839C18.1229 8.34839 17.4971 8.8777 17.202 9.97896H19.8805C19.9299 8.93347 19.6017 8.34839 18.7927 8.34839ZM24.157 10.202L23.5623 14.0625H21.8883L22.9252 7.33063H24.3484L24.3493 8.68268C24.916 7.90228 25.6867 7.24742 26.7414 7.19166L26.7511 8.84997C25.694 8.91974 24.743 9.47709 24.157 10.202ZM26.7291 14.0625L27.7664 7.33063H29.4404L28.4035 14.0625H26.7291ZM28.7913 6.20193C28.2334 6.20193 27.847 5.81158 27.9329 5.25424C28.0209 4.68288 28.5297 4.27853 29.0876 4.27853C29.6318 4.27853 30.0158 4.68288 29.9279 5.25424C29.8419 5.81158 29.3355 6.20193 28.7913 6.20193ZM34.077 5.49102C33.5048 5.49102 33.1593 5.74181 33.067 6.34148L32.9144 7.33063H34.198L34.1968 8.6964H32.704L31.8772 14.0625H30.2172L31.044 8.6964H30.0673L30.2777 7.33063H31.2541L31.4324 6.1739C31.6621 4.68288 32.6967 4.12525 34.0779 4.12525C34.371 4.12525 34.5899 4.15328 34.7533 4.18101L34.7658 5.54678C34.6025 5.51905 34.3558 5.49102 34.077 5.49102ZM34.0951 14.0625L35.1323 7.33063H36.8063L35.7694 14.0625H34.0951ZM36.1572 6.20193C35.5993 6.20193 35.213 5.81158 35.2989 5.25424C35.3869 4.68288 35.8957 4.27853 36.4536 4.27853C36.9978 4.27853 37.3821 4.68288 37.2941 5.25424C37.2082 5.81158 36.7014 6.20193 36.1572 6.20193ZM43.2973 11.0242H38.9722C38.8542 12.3342 39.4635 12.9058 40.496 12.9058C41.3611 12.9058 42.1219 12.585 42.941 12.0694L42.9343 13.3794C42.1315 13.8812 41.203 14.2018 40.1147 14.2018C38.2314 14.2018 36.9878 13.1286 37.3613 10.7033C37.6986 8.51539 39.2139 7.19166 40.9718 7.19166C42.9948 7.19166 43.6676 8.7107 43.3736 10.6201C43.3519 10.7594 43.3122 10.9266 43.2973 11.0242ZM40.7518 8.34839C40.0819 8.34839 39.4562 8.8777 39.1613 9.97896H41.8398C41.8892 8.93347 41.5607 8.34839 40.7518 8.34839ZM48.2563 14.0625L48.2604 13.1286C47.6978 13.7002 46.9651 14.2018 46.0302 14.2018C44.6209 14.2018 43.6524 13.1566 44.0022 10.8846C44.3886 8.37612 45.9416 7.26114 47.504 7.26114C48.1461 7.26114 48.6453 7.37267 49.0281 7.51193L49.5284 4.26451L51.2434 4L49.6933 14.0625H48.2563ZM48.8156 8.89172C48.4272 8.6964 48.1212 8.59889 47.5493 8.59889C46.6702 8.59889 45.9191 9.3098 45.6914 10.7874C45.4898 12.0971 45.9533 12.7105 46.6927 12.7105C47.3064 12.7105 47.8366 12.3485 48.3688 11.7908L48.8156 8.89172ZM54.8217 14.1259C54.0291 14.1259 53.3833 13.9989 52.7818 13.7881L53.883 6.64103L55.1818 6.44017L54.7054 9.53344C55.0851 9.19564 55.6126 8.85785 56.2573 8.85785C57.3351 8.85785 58.057 9.66044 57.7934 11.3704C57.504 13.2494 56.3438 14.1259 54.8217 14.1259ZM55.7572 9.97662C55.3344 9.97662 54.91 10.2619 54.5345 10.6423L54.1782 12.954C54.4281 13.0489 54.6011 13.0912 54.9603 13.0912C55.7634 13.0912 56.3245 12.6057 56.5034 11.4443C56.6548 10.4624 56.328 9.97662 55.7572 9.97662ZM60.7811 14.337C60.1332 15.5933 59.492 15.9839 58.5091 15.9839C58.287 15.9839 58.1637 15.9626 58.0523 15.9311L58.0441 14.8859C58.2069 14.9282 58.3814 14.9597 58.6245 14.9597C58.9945 14.9597 59.3163 14.791 59.532 14.4214L59.7 14.0836L58.6248 9.05842L59.9721 8.88967L60.5961 12.521L62.2856 8.96354H63.5432L60.7811 14.337Z" fill="#1B548E"/>
</svg>
