<svg width="32" height="32" viewBox="0 0 32 32" fill="none" xmlns="http://www.w3.org/2000/svg">
<path fill-rule="evenodd" clip-rule="evenodd" d="M1.92969 20.1001L3.17942 11.166H4.83131L3.80644 18.4957H6.53942L6.31455 20.1001H1.92969Z" fill="#F36C21"/>
<path fill-rule="evenodd" clip-rule="evenodd" d="M23.4609 20.1001L24.7107 11.166H27.2101C28.2307 11.1747 28.9831 11.4255 29.4717 11.9228C29.9561 12.4201 30.1377 13.099 30.0209 13.9595C29.9085 14.7725 29.5409 15.4384 28.9312 15.953C28.3172 16.472 27.4869 16.7271 26.4317 16.7271H25.5842L25.1128 20.1044H23.4609V20.1001ZM26.1377 12.7703L25.809 15.1228H26.7907C27.2447 15.1228 27.6036 15.0233 27.8717 14.833C28.1399 14.6384 28.3085 14.3444 28.369 13.9509C28.4253 13.5617 28.3431 13.272 28.1226 13.073C27.902 12.8741 27.569 12.7747 27.115 12.7747H26.1377V12.7703Z" fill="#F36C21"/>
<path fill-rule="evenodd" clip-rule="evenodd" d="M13.8171 13.0332C14.2279 11.4938 15.8798 5.33594 15.8798 5.33594H13.9252L10.9847 16.2938C10.8376 16.8343 11.162 17.2711 11.6982 17.2711H15.9706L16.5933 15.3165H13.1987L13.8171 13.0332Z" fill="#F36C21"/>
<path fill-rule="evenodd" clip-rule="evenodd" d="M18.7947 12.834C19.3353 12.834 19.6553 13.2707 19.5126 13.8113L18.0899 18.7626C17.9472 19.3032 17.3937 19.7399 16.8531 19.7399H14.2888C13.9645 20.9551 13.3418 23.2556 13.0131 24.4924H13.5364L11.3742 26.6632L10.4531 24.4924H11.0542L12.598 18.767C12.7407 18.2264 13.2942 17.7897 13.8347 17.7897H16.3991C16.5937 17.0545 17.0996 15.5237 17.2942 14.7929H13.9602L14.4704 12.8383H18.7947V12.834Z" fill="#F36C21"/>
<path fill-rule="evenodd" clip-rule="evenodd" d="M11.4069 20.9686C9.76798 19.8356 8.69555 17.9416 8.69555 15.8011C8.69555 12.4065 11.3896 9.63889 14.7583 9.52214L15.2296 7.76214C15.1561 7.76214 15.0826 7.75781 15.0047 7.75781C10.581 7.75781 6.99609 11.3427 6.99609 15.7665C6.99609 18.707 8.58312 21.28 10.9485 22.6681L11.4069 20.9686Z" fill="#F36C21"/>
<path fill-rule="evenodd" clip-rule="evenodd" d="M15.8225 7.79688L15.3598 9.5266C18.6549 9.7212 21.2625 12.4542 21.2625 15.7969C21.2625 19.265 18.4517 22.0801 14.9793 22.0801C13.8679 22.0801 12.8258 21.7904 11.922 21.2844L11.4766 22.9493C12.5403 23.4726 13.7425 23.7709 15.0095 23.7709C19.4333 23.7709 23.0182 20.1861 23.0182 15.7623C23.0139 11.6153 19.8614 8.20769 15.8225 7.79688Z" fill="#F36C21"/>
</svg>
