<svg width="24" height="24" viewBox="0 0 24 24" fill="none" xmlns="http://www.w3.org/2000/svg">
<path d="M20.4839 3H16.4922L16.9922 8C16.9922 8 17.9922 9 19.4922 9C20.5692 9 21.3025 8.48445 21.6305 8.1937C21.7612 8.07782 21.809 7.90091 21.7803 7.72861L21.0757 3.50136C21.0275 3.21205 20.7772 3 20.4839 3Z" stroke="#F36C21" stroke-width="1.5"/>
<path d="M16.4922 3L16.9922 8C16.9922 8 15.9922 9 14.4922 9C12.9922 9 11.9922 8 11.9922 8V3H16.4922Z" stroke="#F36C21" stroke-width="1.5"/>
<path d="M11.9922 3V8C11.9922 8 10.9922 9 9.49219 9C7.99219 9 6.99219 8 6.99219 8L7.49219 3H11.9922Z" stroke="#F36C21" stroke-width="1.5"/>
<path d="M7.49349 3H3.50177C3.20846 3 2.95815 3.21205 2.90993 3.50136L2.20539 7.72862C2.17667 7.90091 2.2245 8.07782 2.3552 8.1937C2.68312 8.48445 3.41644 9 4.49347 9C5.99347 9 6.99349 8 6.99349 8L7.49349 3Z" stroke="#F36C21" stroke-width="1.5"/>
<path d="M3 9V19C3 20.1046 3.89543 21 5 21H19C20.1046 21 21 20.1046 21 19V9" stroke="#F36C21" stroke-width="1.5"/>
<path d="M14.832 21V15C14.832 13.8954 13.9366 13 12.832 13H10.832C9.72746 13 8.83203 13.8954 8.83203 15V21" stroke="#F36C21" stroke-width="1.5" stroke-miterlimit="16"/>
</svg>
