<svg width="118" height="27" viewBox="0 0 118 27" fill="none" xmlns="http://www.w3.org/2000/svg">
<path fill-rule="evenodd" clip-rule="evenodd" d="M12.918 6.98843C14.5526 6.98843 15.8494 7.54843 16.8082 8.66842C17.7671 9.78841 18.1347 11.1481 17.9111 12.7475C17.6875 14.3429 16.9382 15.694 15.6631 16.8009C14.4712 17.8769 12.9207 18.4695 11.315 18.4628C9.67937 18.4628 8.37859 17.9088 7.4127 16.8009C6.44681 15.693 6.0807 14.3419 6.31437 12.7475C6.53796 11.1521 7.28328 9.79244 8.55032 8.66842C9.74208 7.57739 11.3023 6.97727 12.918 6.98843ZM11.5764 16.4791C12.6322 16.4854 13.6506 16.0888 14.4242 15.3702C15.2214 14.6887 15.7407 13.7382 15.8836 12.6992C16.0287 11.6668 15.7895 10.7865 15.166 10.0583C14.5451 9.32712 13.7036 8.96453 12.6415 8.96453C11.5903 8.95568 10.575 9.34668 9.80124 10.0583C9.01119 10.7313 8.49609 11.6712 8.35392 12.6992C8.20586 13.7507 8.44054 14.6435 9.05794 15.3778C9.67283 16.1135 10.5143 16.4791 11.5764 16.4791Z" fill="#434343"/>
<path fill-rule="evenodd" clip-rule="evenodd" d="M0 18.1852L1.53797 7.18066H3.57148L2.30847 16.2106H5.67599L5.40103 18.1852H0Z" fill="#434343"/>
<path fill-rule="evenodd" clip-rule="evenodd" d="M23.373 12.5788H30.5386C30.2667 14.3021 29.5244 15.7121 28.3117 16.809C27.0991 17.9058 25.62 18.4537 23.8746 18.4527C22.1916 18.4527 20.8641 17.9199 19.8922 16.8543C18.9202 15.7887 18.5561 14.4229 18.7999 12.7571C19.009 11.1476 19.8184 9.67663 21.066 8.63867C22.273 7.56706 23.8333 6.979 25.4473 6.98739C26.7063 6.98739 27.7638 7.29207 28.6199 7.90141C29.4691 8.50506 30.0619 9.40446 30.2818 10.4229H27.857C27.6343 9.95157 27.2627 9.56665 26.7994 9.32759C26.2967 9.07635 25.7403 8.95138 25.1784 8.96349C24.1239 8.95035 23.1018 9.32694 22.3079 10.021C21.5019 10.6922 20.9804 11.644 20.8485 12.6845C20.7645 13.1488 20.7804 13.6257 20.895 14.0833C21.0096 14.541 21.2204 14.9691 21.5132 15.339C22.1095 16.0954 23.0074 16.4746 24.2069 16.4766C24.8993 16.4881 25.583 16.3211 26.1921 15.9916C26.8261 15.646 27.3478 15.1259 27.6953 14.4929H23.1056L23.373 12.5788Z" fill="#434343"/>
<path fill-rule="evenodd" clip-rule="evenodd" d="M31.1211 18.1852L32.6591 7.18066H34.6926L33.1531 18.1852H31.1211Z" fill="#434343"/>
<path fill-rule="evenodd" clip-rule="evenodd" d="M46.6154 10.3341H44.3024C44.0289 9.911 43.6539 9.56304 43.2116 9.32184C42.755 9.08137 42.2456 8.95881 41.7295 8.9653C40.6757 8.95392 39.6589 9.3539 38.8953 10.0803C38.1269 10.7515 37.6238 11.6752 37.4767 12.6848C37.3307 13.7253 37.5668 14.6206 38.1853 15.371C38.8037 16.1213 39.6396 16.491 40.6931 16.4799C41.2068 16.4782 41.7147 16.3718 42.1858 16.1672C42.6958 15.9448 43.151 15.6138 43.5198 15.1973H45.8842C45.2986 16.1687 44.4882 16.9852 43.5213 17.5782C42.5699 18.1601 41.4745 18.4636 40.3593 18.4545C38.7478 18.4545 37.4676 17.9005 36.5189 16.7926C35.5701 15.6847 35.2115 14.3165 35.4432 12.6879C35.6638 11.1116 36.4046 9.76803 37.6655 8.6571C38.8474 7.57851 40.3924 6.9851 41.9924 6.99525C43.1315 6.99525 44.1085 7.29035 44.9233 7.88056C45.7461 8.48592 46.3419 9.34987 46.6154 10.3341Z" fill="#434343"/>
<path fill-rule="evenodd" clip-rule="evenodd" d="M67.6172 18.1852L69.1582 7.18066H72.2371C73.4921 7.19074 74.4202 7.50044 75.0215 8.10979C75.6228 8.71914 75.8474 9.5551 75.6953 10.6177C75.5792 11.5774 75.0996 12.456 74.3553 13.0727C73.6009 13.7102 72.5745 14.028 71.2763 14.026H70.2339L69.6522 18.1867L67.6172 18.1852ZM70.9137 9.15525L70.5088 12.0514H71.7174C72.1884 12.0751 72.6548 11.9492 73.0499 11.6918C73.2213 11.5619 73.3641 11.3982 73.4696 11.2108C73.5751 11.0235 73.6411 10.8164 73.6633 10.6026C73.7318 10.1272 73.6311 9.76661 73.3612 9.52086C73.0922 9.27762 72.6783 9.15525 72.1223 9.15525H70.9137Z" fill="#434343"/>
<path fill-rule="evenodd" clip-rule="evenodd" d="M82.7657 6.98844C84.4003 6.98844 85.6971 7.54843 86.6559 8.66842C87.6148 9.78841 87.9824 11.1481 87.7588 12.7475C87.5332 14.3429 86.7838 15.694 85.5107 16.8009C84.3184 17.8772 82.7674 18.4698 81.1612 18.4628C79.5266 18.4628 78.2258 17.9088 77.2589 16.8009C76.292 15.693 75.9269 14.3419 76.1636 12.7475C76.3841 11.1521 77.132 9.79395 78.3965 8.66842C79.5888 7.57729 81.1495 6.97719 82.7657 6.98844ZM81.4226 16.4791C82.4789 16.4856 83.4979 16.089 84.2719 15.3702C85.0686 14.6882 85.5877 13.738 85.7313 12.6992C85.8764 11.6668 85.6371 10.7865 85.0137 10.0583C84.3928 9.32712 83.5498 8.96453 82.4892 8.96453C81.438 8.95568 80.4227 9.34668 79.6489 10.0583C78.8589 10.7313 78.3438 11.6712 78.2016 12.6992C78.0535 13.7507 78.2877 14.6435 78.9041 15.3778C79.5205 16.1135 80.362 16.4791 81.4226 16.4791Z" fill="#434343"/>
<path fill-rule="evenodd" clip-rule="evenodd" d="M90.1029 18.1852L88.4531 7.18066H90.5017L91.3402 14.8841L94.2938 7.18066H95.7789L96.5751 14.8841L99.5709 7.18066H101.62L96.8908 18.1852H95.3226L94.5295 10.8065L91.6726 18.1852H90.1029Z" fill="#434343"/>
<path fill-rule="evenodd" clip-rule="evenodd" d="M101.191 18.1852L102.729 7.18066H108.635L108.359 9.15525H104.488L104.13 11.7039H107.839L107.561 13.6785H103.853L103.5 16.2106H107.37L107.096 18.1852H101.191Z" fill="#434343"/>
<path fill-rule="evenodd" clip-rule="evenodd" d="M108.922 18.1852L110.46 7.18066H113.646C114.973 7.18066 115.95 7.49289 116.577 8.11735C117.204 8.7418 117.442 9.59791 117.29 10.6857C117.171 11.5719 116.767 12.3952 116.137 13.0304C115.531 13.6687 114.71 14.0604 113.832 14.1302L116.359 18.1852H113.883L111.593 14.1302H111.522L110.955 18.1852H108.922ZM112.218 9.15525L111.765 12.4321H112.974C113.517 12.4547 114.054 12.3182 114.521 12.0393C114.924 11.7765 115.165 11.3615 115.246 10.7944C115.327 10.2274 115.198 9.81546 114.859 9.55863C114.534 9.28971 114.059 9.15525 113.433 9.15525H112.218Z" fill="#434343"/>
<path fill-rule="evenodd" clip-rule="evenodd" d="M55.7389 9.48164L58.2785 0H55.8718L52.246 13.5018C52.0677 14.1666 52.462 14.7104 53.1268 14.7104H58.4009L59.1563 12.2962H54.979L55.7389 9.48164Z" fill="#F36C21"/>
<path fill-rule="evenodd" clip-rule="evenodd" d="M61.8761 9.23828C62.5424 9.23828 62.9336 9.77763 62.7584 10.4469L61.0029 16.5474C60.9042 16.881 60.7044 17.1756 60.431 17.3908C60.1577 17.6059 59.8244 17.7309 59.477 17.7485H56.3164C55.9161 19.2442 55.1486 22.0799 54.7422 23.6028H55.3888L52.7268 26.2799L51.5938 23.6028H52.3325L54.2331 16.5474C54.3302 16.2126 54.5291 15.9163 54.8023 15.6998C55.0755 15.4832 55.4093 15.357 55.7575 15.3388H58.9195C59.1612 14.4323 59.7807 12.5499 60.0239 11.648H55.9176L56.5491 9.23979L61.8761 9.23828Z" fill="#F36C21"/>
<path fill-rule="evenodd" clip-rule="evenodd" d="M52.7682 19.2568C51.4294 18.3323 50.4161 17.0093 49.8723 15.4758C49.3286 13.9424 49.2822 12.2765 49.7396 10.7151C50.197 9.15377 51.1351 7.77634 52.4203 6.77871C53.7056 5.78109 55.2726 5.21404 56.8987 5.1582L57.4788 2.99023C57.3867 2.99023 57.296 2.99023 57.2039 2.99023C55.041 2.9931 52.939 3.70666 51.2214 5.0211C49.5038 6.33554 48.2658 8.17801 47.6978 10.265C47.1298 12.3519 47.2634 14.5677 48.078 16.5713C48.8926 18.5748 50.3431 20.2552 52.2062 21.3537L52.7682 19.2568Z" fill="#F36C21"/>
<path fill-rule="evenodd" clip-rule="evenodd" d="M58.2082 3.0332L57.6356 5.16491C58.7964 5.23401 59.9268 5.56382 60.9427 6.12983C61.9586 6.69584 62.8339 7.48349 63.5035 8.43427C64.1731 9.38505 64.6199 10.4745 64.8106 11.6217C65.0013 12.7689 64.9311 13.9443 64.6051 15.0606C64.2791 16.1769 63.7057 17.2054 62.9276 18.0696C62.1495 18.9339 61.1866 19.6117 60.1106 20.0526C59.0345 20.4936 57.8729 20.6864 56.7121 20.6168C55.5512 20.5471 54.421 20.2168 53.4054 19.6502L52.8555 21.7019C54.1505 22.338 55.5693 22.6824 57.0118 22.7106C58.4543 22.7389 59.8855 22.4504 61.2045 21.8655C62.5234 21.2806 63.698 20.4135 64.6454 19.3254C65.5929 18.2372 66.2901 16.9545 66.688 15.5676C67.0858 14.1807 67.1747 12.7235 66.9482 11.2985C66.7217 9.87361 66.1854 8.51571 65.3772 7.32054C64.5689 6.12537 63.5083 5.12204 62.2702 4.38128C61.032 3.64051 59.6465 3.18034 58.2112 3.0332" fill="#F36C21"/>
</svg>
