<svg width="223" height="223" viewBox="0 0 223 223" fill="none" xmlns="http://www.w3.org/2000/svg">
<path fill-rule="evenodd" clip-rule="evenodd" d="M13.4336 140.068L22.1426 77.8086H33.6543L26.5122 128.888H45.5576L43.9906 140.068H13.4336Z" fill="#F36C21"/>
<path fill-rule="evenodd" clip-rule="evenodd" d="M163.479 140.068L172.189 77.8086H189.607C196.719 77.8689 201.962 79.6167 205.367 83.0822C208.742 86.5478 210.008 91.279 209.194 97.2759C208.411 102.941 205.849 107.582 201.6 111.168C197.321 114.784 191.535 116.562 184.182 116.562H178.276L174.991 140.098H163.479V140.068ZM182.133 88.9887L179.843 105.382H186.684C189.848 105.382 192.349 104.689 194.217 103.363C196.086 102.007 197.261 99.9579 197.683 97.2156C198.075 94.5035 197.502 92.4844 195.965 91.0982C194.428 89.712 192.108 89.0189 188.944 89.0189H182.133V88.9887Z" fill="#F36C21"/>
<path fill-rule="evenodd" clip-rule="evenodd" d="M96.2883 90.8261C99.1511 80.098 110.663 37.1855 110.663 37.1855H97.0417L76.5498 113.548C75.5252 117.315 77.7853 120.359 81.5221 120.359H111.296L115.635 106.737H91.979L96.2883 90.8261Z" fill="#F36C21"/>
<path fill-rule="evenodd" clip-rule="evenodd" d="M130.962 89.4414C134.729 89.4414 136.959 92.4851 135.965 96.2519L126.05 130.757C125.056 134.524 121.198 137.567 117.432 137.567H99.5614C97.3013 146.035 92.9618 162.067 90.6715 170.686H94.3179L79.2503 185.814L72.8315 170.686H77.0203L87.7786 130.787C88.773 127.02 92.6303 123.976 96.3972 123.976H114.267C115.623 118.853 119.149 108.185 120.505 103.093H97.2711L100.827 89.4715H130.962V89.4414Z" fill="#F36C21"/>
<path fill-rule="evenodd" clip-rule="evenodd" d="M79.4922 146.124C68.071 138.229 60.5975 125.03 60.5975 110.113C60.5975 86.4568 79.3717 67.1703 102.847 66.3567L106.132 54.0917C105.619 54.0917 105.107 54.0615 104.565 54.0615C73.7364 54.0615 48.7544 79.0436 48.7544 109.872C48.7544 130.364 59.814 148.294 76.2979 157.967L79.4922 146.124Z" fill="#F36C21"/>
<path fill-rule="evenodd" clip-rule="evenodd" d="M110.263 54.335L107.038 66.389C130.001 67.7451 148.173 86.7905 148.173 110.085C148.173 134.253 128.585 153.871 104.387 153.871C96.6418 153.871 89.3792 151.852 83.081 148.326L79.9771 159.928C87.3903 163.575 95.7679 165.654 104.597 165.654C135.426 165.654 160.408 140.672 160.408 109.844C160.378 80.9443 138.409 57.1978 110.263 54.335Z" fill="#F36C21"/>
</svg>
