<svg width="30" height="30" viewBox="0 0 30 30" fill="none" xmlns="http://www.w3.org/2000/svg">
<g clip-path="url(#clip0_7_749)">
<path d="M15.937 4.68745C20.1814 6.2288 22.9394 13.5079 24.1811 16.209C25.7392 20.1294 23.5557 23.5194 20.8527 25.6025C18.1497 27.6857 7.52521 30.0352 3.28076 20.625C-0.963682 11.2148 10.6315 2.76076 15.937 4.68745Z" fill="#E2A977" fill-opacity="0.15"/>
<path d="M27.8999 16.8126L27.123 13.7051C27.3354 13.66 27.4948 13.4715 27.4948 13.2458V12.7447C27.4948 11.6569 26.6097 10.7719 25.5219 10.7719H21.9833V9.73845C21.9833 9.20314 21.5479 8.76767 21.0125 8.76767H14.4328L18.4312 7.1683C18.6721 7.07197 18.7893 6.79857 18.6929 6.55769C18.5966 6.31687 18.3234 6.19962 18.0823 6.29601L14.8085 7.60552C15.8061 6.96544 16.7931 6.26097 17.1688 5.76831C17.9004 4.80919 17.7151 3.43376 16.756 2.70222C15.7969 1.97062 14.4214 2.15595 13.6899 3.11507C13.1554 3.81597 12.4502 5.78537 11.9937 7.17316C11.5373 5.78548 10.8321 3.81597 10.2976 3.11507C9.56607 2.15595 8.19059 1.97074 7.23146 2.70222C6.27234 3.43371 6.08713 4.80913 6.81861 5.76831C7.19438 6.26103 8.18133 6.96544 9.179 7.60552L5.90514 6.29601C5.66414 6.19951 5.39086 6.31681 5.29453 6.55769C5.19814 6.79857 5.31533 7.07197 5.55621 7.1683L9.55465 8.76767H2.97492C2.43961 8.76767 2.00414 9.20314 2.00414 9.73845V18.2562C2.00414 18.5156 2.21443 18.726 2.47389 18.726C2.73328 18.726 2.94363 18.5157 2.94363 18.2562V9.73845C2.94363 9.72117 2.95764 9.70716 2.97492 9.70716H21.0125C21.0298 9.70716 21.0438 9.72117 21.0438 9.73845V18.2563C21.0438 18.5157 21.2541 18.7261 21.5135 18.7261C21.7729 18.7261 21.9833 18.5158 21.9833 18.2563V17.7238H27.5242C27.5248 17.7238 27.5252 17.724 27.5257 17.724C27.5262 17.724 27.5267 17.7239 27.5272 17.7239C28.209 17.7244 28.7879 18.172 28.9867 18.7886H27.5261C27.2667 18.7886 27.0563 18.9989 27.0563 19.2584V20.2604C27.0563 21.072 27.7165 21.7322 28.5281 21.7322H29.0605V23.799H27.8323C27.4288 22.6341 26.3213 21.7948 25.0208 21.7948C23.7203 21.7948 22.6128 22.634 22.2094 23.799H21.9832V20.2604C21.9832 20.001 21.7729 19.7906 21.5135 19.7906C21.2541 19.7906 21.0437 20.0009 21.0437 20.2604V23.799H11.2979C10.8944 22.634 9.78691 21.7948 8.48643 21.7948C7.18594 21.7948 6.0784 22.6339 5.67498 23.799H2.97492C2.95764 23.799 2.94363 23.785 2.94363 23.7677V22.7343H4.97912C5.23852 22.7343 5.44887 22.524 5.44887 22.2645C5.44887 22.0051 5.23857 21.7948 4.97912 21.7948H0.469746C0.210352 21.7948 0 22.0051 0 22.2645C0 22.524 0.210293 22.7343 0.469746 22.7343H2.0042V23.7677C2.0042 24.303 2.43967 24.7384 2.97498 24.7384H5.51232C5.51221 24.7489 5.5115 24.7592 5.5115 24.7697C5.5115 26.4101 6.84609 27.7447 8.48643 27.7447C10.1268 27.7447 11.4613 26.4101 11.4613 24.7697C11.4613 24.7592 11.4606 24.7489 11.4605 24.7384H22.0467C22.0465 24.7489 22.0458 24.7592 22.0458 24.7697C22.0458 26.4101 23.3804 27.7447 25.0208 27.7447C26.6611 27.7447 27.9957 26.4101 27.9957 24.7697C27.9957 24.7592 27.995 24.7489 27.9949 24.7384H29.5302C29.7896 24.7384 29.9999 24.5282 29.9999 24.2687V19.2583C30 18.0211 29.0873 16.9933 27.8999 16.8126ZM10.1309 7.09312C8.27795 5.94169 7.72834 5.41195 7.56562 5.19855C7.14826 4.65134 7.25397 3.8666 7.80123 3.44923C8.02682 3.2772 8.29272 3.19406 8.55668 3.19406C8.93297 3.19406 9.30527 3.36316 9.5506 3.68484C10.005 4.28062 10.7166 6.28587 11.1864 7.73085C10.8694 7.54417 10.5049 7.32568 10.1309 7.09312ZM12.8012 7.73079C13.271 6.28587 13.9826 4.28068 14.4369 3.68478C14.8543 3.13757 15.639 3.03193 16.1862 3.44923C16.7335 3.8666 16.8391 4.65134 16.4218 5.19855C16.2591 5.41189 15.7095 5.94169 13.8567 7.09306C13.4827 7.32556 13.1183 7.54412 12.8012 7.73079ZM21.9833 11.7112H25.5219C26.0917 11.7112 26.5553 12.1748 26.5553 12.7447V12.776H21.9833V11.7112ZM21.9833 16.7843V13.7154H26.1572L26.9245 16.7843H21.9833ZM8.48643 26.8052C7.36406 26.8052 6.45094 25.8921 6.45094 24.7697C6.45094 23.6474 7.36406 22.7343 8.48643 22.7343C9.60879 22.7343 10.5219 23.6474 10.5219 24.7697C10.5219 25.8921 9.60879 26.8052 8.48643 26.8052ZM25.0209 26.8052C23.8985 26.8052 22.9854 25.8921 22.9854 24.7697C22.9854 23.6474 23.8985 22.7343 25.0209 22.7343C26.1432 22.7343 27.0564 23.6474 27.0564 24.7697C27.0564 25.8921 26.1432 26.8052 25.0209 26.8052ZM29.0606 20.7927H28.5282C28.2346 20.7927 27.9958 20.5539 27.9958 20.2603V19.7279H29.0605V20.7927H29.0606Z" fill="#F36C21"/>
<path d="M8.48641 23.7988C7.95109 23.7988 7.51562 24.2343 7.51562 24.7696C7.51562 25.3049 7.95109 25.7404 8.48641 25.7404C9.02172 25.7404 9.45719 25.3049 9.45719 24.7696C9.45719 24.2343 9.02172 23.7988 8.48641 23.7988Z" fill="#F36C21"/>
<path d="M25.0216 23.7988C24.4863 23.7988 24.0508 24.2343 24.0508 24.7696C24.0508 25.3049 24.4863 25.7404 25.0216 25.7404C25.5569 25.7404 25.9923 25.3049 25.9923 24.7696C25.9923 24.2343 25.5569 23.7988 25.0216 23.7988Z" fill="#F36C21"/>
<path d="M19.5097 21.7949H12.4951C12.2357 21.7949 12.0254 22.0052 12.0254 22.2647C12.0254 22.5241 12.2357 22.7344 12.4951 22.7344H19.5097C19.7691 22.7344 19.9795 22.5241 19.9795 22.2647C19.9795 22.0052 19.7692 21.7949 19.5097 21.7949Z" fill="#F36C21"/>
<path d="M7.48423 19.791H1.4717C1.2123 19.791 1.00195 20.0013 1.00195 20.2608C1.00195 20.5202 1.21225 20.7305 1.4717 20.7305H7.48423C7.74362 20.7305 7.95398 20.5202 7.95398 20.2608C7.95398 20.0013 7.74362 19.791 7.48423 19.791Z" fill="#F36C21"/>
<path d="M4.998 17.4375C4.959 17.4375 4.926 17.4255 4.899 17.4015C4.875 17.3745 4.863 17.3415 4.863 17.3025V14.058C4.863 14.019 4.875 13.9875 4.899 13.9635C4.926 13.9365 4.959 13.923 4.998 13.923H7.1625C7.1985 13.923 7.23 13.9365 7.257 13.9635C7.284 13.9875 7.2975 14.019 7.2975 14.058C7.2975 14.094 7.284 14.1255 7.257 14.1525C7.23 14.1795 7.1985 14.193 7.1625 14.193H5.133V15.543H6.6225C6.6615 15.543 6.693 15.5565 6.717 15.5835C6.744 15.6075 6.7575 15.639 6.7575 15.678C6.7575 15.717 6.744 15.75 6.717 15.777C6.693 15.804 6.6615 15.8175 6.6225 15.8175H5.133V17.3025C5.133 17.3415 5.1195 17.3745 5.0925 17.4015C5.0685 17.4255 5.037 17.4375 4.998 17.4375ZM8.085 17.4375C8.046 17.4375 8.013 17.4255 7.986 17.4015C7.962 17.3745 7.95 17.3415 7.95 17.3025V14.058C7.95 14.016 7.962 13.983 7.986 13.959C8.013 13.935 8.046 13.923 8.085 13.923H8.9445C9.1635 13.923 9.357 13.9695 9.525 14.0625C9.696 14.1525 9.8295 14.277 9.9255 14.436C10.0215 14.595 10.0695 14.7795 10.0695 14.9895C10.0695 15.1935 10.0215 15.375 9.9255 15.534C9.8295 15.693 9.696 15.8175 9.525 15.9075C9.357 15.9975 9.1635 16.0425 8.9445 16.0425H8.22V17.3025C8.22 17.3415 8.208 17.3745 8.184 17.4015C8.16 17.4255 8.127 17.4375 8.085 17.4375ZM9.975 17.4375C9.942 17.4375 9.9165 17.4315 9.8985 17.4195C9.8835 17.4045 9.8685 17.3865 9.8535 17.3655L8.958 15.9345L9.237 15.8715L10.0875 17.2305C10.1265 17.2905 10.134 17.34 10.11 17.379C10.089 17.418 10.044 17.4375 9.975 17.4375ZM8.22 15.7725H8.9445C9.1125 15.7725 9.2595 15.7395 9.3855 15.6735C9.5145 15.6045 9.615 15.5115 9.687 15.3945C9.762 15.2775 9.7995 15.1425 9.7995 14.9895C9.7995 14.8335 9.762 14.6955 9.687 14.5755C9.615 14.4555 9.5145 14.3625 9.3855 14.2965C9.2595 14.2275 9.1125 14.193 8.9445 14.193H8.22V15.7725ZM10.8228 17.4375C10.7838 17.4375 10.7508 17.4255 10.7238 17.4015C10.6998 17.3745 10.6878 17.3415 10.6878 17.3025V14.058C10.6878 14.019 10.6998 13.9875 10.7238 13.9635C10.7508 13.9365 10.7838 13.923 10.8228 13.923H12.9873C13.0233 13.923 13.0548 13.9365 13.0818 13.9635C13.1088 13.9875 13.1223 14.019 13.1223 14.058C13.1223 14.094 13.1088 14.1255 13.0818 14.1525C13.0548 14.1795 13.0233 14.193 12.9873 14.193H10.9578V15.543H12.4473C12.4863 15.543 12.5178 15.5565 12.5418 15.5835C12.5688 15.6075 12.5823 15.639 12.5823 15.678C12.5823 15.717 12.5688 15.75 12.5418 15.777C12.5178 15.804 12.4863 15.8175 12.4473 15.8175H10.9578V17.1675H12.9873C13.0233 17.1675 13.0548 17.181 13.0818 17.208C13.1088 17.235 13.1223 17.2665 13.1223 17.3025C13.1223 17.3415 13.1088 17.3745 13.0818 17.4015C13.0548 17.4255 13.0233 17.4375 12.9873 17.4375H10.8228ZM13.9078 17.4375C13.8688 17.4375 13.8358 17.4255 13.8088 17.4015C13.7848 17.3745 13.7728 17.3415 13.7728 17.3025V14.058C13.7728 14.019 13.7848 13.9875 13.8088 13.9635C13.8358 13.9365 13.8688 13.923 13.9078 13.923H16.0723C16.1083 13.923 16.1398 13.9365 16.1668 13.9635C16.1938 13.9875 16.2073 14.019 16.2073 14.058C16.2073 14.094 16.1938 14.1255 16.1668 14.1525C16.1398 14.1795 16.1083 14.193 16.0723 14.193H14.0428V15.543H15.5323C15.5713 15.543 15.6028 15.5565 15.6268 15.5835C15.6538 15.6075 15.6673 15.639 15.6673 15.678C15.6673 15.717 15.6538 15.75 15.6268 15.777C15.6028 15.804 15.5713 15.8175 15.5323 15.8175H14.0428V17.1675H16.0723C16.1083 17.1675 16.1398 17.181 16.1668 17.208C16.1938 17.235 16.2073 17.2665 16.2073 17.3025C16.2073 17.3415 16.1938 17.3745 16.1668 17.4015C16.1398 17.4255 16.1083 17.4375 16.0723 17.4375H13.9078Z" fill="#F36C21"/>
</g>
<defs>
<clipPath id="clip0_7_749">
<rect width="30" height="30" fill="white"/>
</clipPath>
</defs>
</svg>
