<svg width="61" height="66" viewBox="0 0 61 66" fill="none" xmlns="http://www.w3.org/2000/svg">
<path d="M0.77859 41.0918C1.0379 38.8366 1.64321 36.6349 2.57319 34.5642C3.59376 32.3002 4.9476 30.2019 6.58967 28.339C7.87476 26.8524 9.31364 25.5061 10.8822 24.3225C12.9301 22.7922 15.1549 21.5143 17.5084 20.5164C19.6243 19.6207 21.8273 18.9466 24.0821 18.5048C25.5981 18.1901 27.1368 17.9966 28.6836 17.9264C29.0386 17.9264 29.1109 17.7686 29.078 17.4596C29.0601 17.1707 29.0601 16.8809 29.078 16.5919C29.0607 16.347 29.0937 16.1011 29.175 15.8694C29.2562 15.6377 29.3839 15.425 29.5504 15.2445C29.7168 15.0639 29.9184 14.9193 30.1427 14.8195C30.3671 14.7197 30.6094 14.6669 30.855 14.6642C31.1005 14.6615 31.344 14.709 31.5705 14.8039C31.7969 14.8987 32.0016 15.0389 32.172 15.2157C32.3423 15.3926 32.4747 15.6024 32.561 15.8322C32.6473 16.0621 32.6857 16.3072 32.6738 16.5525C32.6927 16.8721 32.6927 17.1926 32.6738 17.5122C32.6738 17.7883 32.7264 17.9001 33.0288 17.9198C34.6437 18.0283 36.2493 18.2479 37.8341 18.5771C39.6058 18.9143 41.3437 19.4093 43.0272 20.0562C45.1132 20.856 47.113 21.8647 48.9961 23.0669C50.7376 24.19 52.3569 25.4921 53.8277 26.9519C55.4699 28.5935 56.8868 30.446 58.0414 32.4606C59.6259 35.2413 60.6321 38.3135 60.9995 41.4928C60.9995 41.5519 60.9995 41.6177 60.9995 41.7491C60.2321 41.2421 59.398 40.8439 58.5212 40.5659C56.7029 40.0282 54.7883 39.898 52.9139 40.1846C51.4143 40.3557 49.978 40.8856 48.7266 41.7294C48.055 42.1688 47.5127 42.7792 47.1555 43.4977C46.9714 43.8856 46.7676 43.8987 46.5967 43.5569C45.7947 41.9332 44.3617 41.1246 42.7446 40.6119C39.953 39.69 36.925 39.7878 34.1989 40.888C32.8496 41.3258 31.7215 42.2678 31.0501 43.5174C30.8989 43.8198 30.7017 43.8856 30.5439 43.5569C29.6368 41.7097 27.9605 40.9274 26.133 40.4147C24.3978 39.9413 22.5788 39.8605 20.8084 40.178C19.1459 40.3828 17.5708 41.0374 16.2529 42.0712C15.7729 42.4809 15.3909 42.9931 15.1354 43.57C14.9973 43.8658 14.787 43.8921 14.6489 43.6095C13.7681 41.7952 12.1378 40.98 10.3432 40.4804C8.50387 39.9639 6.57234 39.8651 4.68989 40.1912C3.39505 40.3935 2.15034 40.8396 1.02181 41.5059C0.594529 41.5519 0.752296 41.2824 0.77859 41.0918Z" fill="#5E5E5E"/>
<path d="M49.1016 52.083H44.5001C43.9216 52.083 43.3431 52.083 42.7646 52.083C42.6888 52.096 42.6111 52.0934 42.5364 52.0754C42.4616 52.0573 42.3913 52.0242 42.3297 51.9781C42.2682 51.9319 42.2167 51.8737 42.1785 51.8069C42.1402 51.7402 42.116 51.6664 42.1073 51.5899C41.9721 50.9927 41.9721 50.3728 42.1073 49.7756C42.1177 49.7025 42.1425 49.6322 42.1803 49.5688C42.2181 49.5053 42.2681 49.45 42.3274 49.406C42.3867 49.362 42.4541 49.3302 42.5258 49.3124C42.5974 49.2946 42.6719 49.2912 42.7449 49.3023H51.8099C51.9031 49.2901 51.9979 49.298 52.0878 49.3255C52.1777 49.353 52.2606 49.3995 52.331 49.4618C52.4015 49.5241 52.4577 49.6008 52.4959 49.6867C52.5342 49.7726 52.5535 49.8657 52.5527 49.9597C52.7037 50.7999 52.6149 51.6656 52.2964 52.4577C50.6004 56.4018 48.8847 60.346 47.1821 64.3362C47.1255 64.5148 47.0173 64.6726 46.871 64.7896C46.7247 64.9066 46.547 64.9776 46.3604 64.9935C45.5625 65.0934 44.7545 65.0779 43.961 64.9475C43.5009 64.8621 43.4286 64.6583 43.6652 64.1324L47.5634 55.4815L49.1016 52.083Z" fill="#F36C21"/>
<path d="M13.7812 57.1312C13.7812 59.478 13.7812 61.8182 13.7812 64.165C13.7955 64.2592 13.7892 64.3554 13.7626 64.4469C13.736 64.5384 13.6899 64.6231 13.6274 64.695C13.5648 64.7669 13.4874 64.8243 13.4005 64.8633C13.3135 64.9024 13.2192 64.922 13.1239 64.9209C12.4428 65.0354 11.7474 65.0354 11.0663 64.9209C10.9905 64.9161 10.9164 64.8959 10.8486 64.8614C10.7808 64.8269 10.7208 64.779 10.6721 64.7206C10.6235 64.6621 10.5874 64.5943 10.5658 64.5214C10.5443 64.4485 10.5379 64.3719 10.547 64.2964C10.5383 59.5152 10.5339 54.7362 10.5339 49.9594C10.5238 49.8794 10.5304 49.7982 10.5532 49.7209C10.576 49.6436 10.6145 49.5718 10.6664 49.5101C10.7182 49.4484 10.7823 49.398 10.8545 49.3622C10.9267 49.3264 11.0055 49.3059 11.0861 49.302C11.7848 49.1884 12.4974 49.1884 13.1962 49.302C13.6103 49.3678 13.7747 49.5978 13.7681 50.0383C13.7681 52.4113 13.7812 54.7713 13.7812 57.1312Z" fill="#F36C21"/>
<path d="M33.0808 2.85938C33.4058 3.39363 33.6851 3.95438 33.9157 4.53565C34.5348 5.77528 35.0685 7.05573 35.5131 8.36806C35.681 8.72541 35.7663 9.11599 35.7627 9.51082C35.759 9.90565 35.6665 10.2946 35.492 10.6488C35.3174 11.0029 35.0654 11.3133 34.7545 11.5567C34.4437 11.8001 34.082 11.9704 33.6963 12.055C33.3106 12.1395 32.9108 12.1361 32.5266 12.045C32.1424 11.9539 31.7837 11.7774 31.477 11.5287C31.1704 11.28 30.9236 10.9654 30.7552 10.6083C30.5868 10.2512 30.5009 9.86069 30.504 9.46586C30.5226 8.84483 30.661 8.23324 30.9116 7.66469C31.5523 6.02701 32.2764 4.42315 33.0808 2.85938Z" fill="#D9D9D9"/>
<path d="M5.05771 14.7578C5.49156 15.6715 5.91885 16.4998 6.28697 17.3873C6.80237 18.4645 7.22462 19.5839 7.54911 20.7332C7.64514 21.0852 7.66457 21.4536 7.60608 21.8137C7.54759 22.1737 7.41254 22.5171 7.21004 22.8205C7.00755 23.1239 6.74232 23.3804 6.43226 23.5726C6.1222 23.7648 5.77452 23.8882 5.41268 23.9346C5.05584 23.9893 4.6915 23.9686 4.34315 23.8738C3.99481 23.779 3.67019 23.6123 3.39024 23.3844C3.11028 23.1564 2.88121 22.8724 2.71778 22.5505C2.55435 22.2286 2.4602 21.876 2.44141 21.5155C2.45309 20.811 2.61914 20.1176 2.92785 19.4842C3.55892 17.8934 4.24258 16.3552 5.05771 14.7578Z" fill="#D9D9D9"/>
<path d="M40.2987 10.0703C40.7559 10.8938 41.1599 11.7458 41.5083 12.6209C41.8136 13.2697 42.0515 13.9481 42.2182 14.6456C42.3048 15.0196 42.2714 15.4114 42.1228 15.7654C41.9741 16.1194 41.7177 16.4176 41.39 16.6176C41.068 16.8297 40.6909 16.9427 40.3053 16.9427C39.9198 16.9427 39.5427 16.8297 39.2207 16.6176C38.8984 16.4132 38.648 16.1134 38.5043 15.7599C38.3605 15.4064 38.3306 15.0168 38.4187 14.6456C38.7596 13.3831 39.2379 12.1619 39.8452 11.0038C39.9766 10.7145 40.1147 10.4319 40.2987 10.0703Z" fill="#D9D9D9"/>
<path d="M12.4537 11.3262C12.9089 12.1529 13.3129 13.0069 13.6632 13.8833C13.9677 14.5325 14.2055 15.2108 14.3732 15.908C14.4592 16.2827 14.4248 16.6751 14.2749 17.0291C14.125 17.3832 13.8672 17.681 13.5383 17.8801C13.2163 18.0921 12.8392 18.2051 12.4537 18.2051C12.0681 18.2051 11.691 18.0921 11.369 17.8801C11.0444 17.6832 10.7894 17.3899 10.6397 17.041C10.49 16.6921 10.4531 16.3052 10.5342 15.9343C10.8685 14.654 11.3494 13.4166 11.9672 12.2465C12.1316 11.9638 12.2762 11.6877 12.4537 11.3262Z" fill="#D9D9D9"/>
<path d="M0.778093 41.0918C0.843829 41.2364 0.712357 41.4862 1.0016 41.5059C0.929286 41.5848 0.804388 41.7163 0.745225 41.6506C0.693412 41.5651 0.668809 41.4659 0.674679 41.3661C0.680549 41.2663 0.716615 41.1706 0.778093 41.0918Z" fill="#515151"/>
<path fill-rule="evenodd" clip-rule="evenodd" d="M36.2094 55.0805C34.9611 55.0434 33.7272 55.3553 32.6465 55.9811C32.6662 55.8335 32.6842 55.69 32.7019 55.5498C32.7549 55.1279 32.8042 54.7357 32.8832 54.3508C32.9898 53.5284 33.4033 52.7766 34.0409 52.2463C34.6785 51.716 35.4931 51.4463 36.3212 51.4913C37.1225 51.5157 37.9157 51.6597 38.6745 51.9186C39.1084 52.0501 39.2793 51.9317 39.3319 51.4716C39.3638 51.0888 39.3638 50.704 39.3319 50.3212C39.3365 50.1034 39.2647 49.8908 39.1291 49.7203C38.9934 49.5499 38.8024 49.4322 38.5891 49.3878C37.9287 49.1933 37.246 49.085 36.5578 49.0656C33.5931 48.9145 31.2463 50.1963 30.2537 53.1084C29.3819 55.8673 29.2909 58.8138 29.9908 61.6213C30.0945 62.2491 30.3396 62.8452 30.7074 63.3644C31.0752 63.8837 31.5562 64.3126 32.1141 64.6188C33.1107 65.1145 34.2283 65.3152 35.3351 65.1973C36.1813 65.1889 37.0116 64.9662 37.7484 64.5501C38.4852 64.134 39.1046 63.5379 39.5488 62.8176C40.1971 61.6657 40.4619 60.3372 40.3048 59.0247C40.1536 56.5859 38.6417 55.1331 36.2094 55.0805ZM32.9229 58.2666C32.7773 58.4661 32.7773 58.7718 32.7773 59.4714C32.7961 60.1477 32.918 60.8172 33.1389 61.4566C33.2349 61.7892 33.4295 62.0848 33.6972 62.3043C33.9648 62.5238 34.2928 62.6569 34.6377 62.6859C35.0398 62.7719 35.4588 62.7301 35.8359 62.5663C36.2131 62.4024 36.5296 62.1248 36.7412 61.7722C37.1956 60.9752 37.3317 60.0359 37.1225 59.1427C37.1092 58.9026 37.0464 58.6677 36.9381 58.4529C36.8299 58.2381 36.6785 58.0479 36.4934 57.8943C36.3083 57.7407 36.0935 57.6269 35.8624 57.56C35.6313 57.4932 35.3889 57.4748 35.1504 57.5059C34.6231 57.5242 34.1038 57.6401 33.6188 57.8477C33.2462 58.0166 33.0386 58.1081 32.9229 58.2666Z" fill="#F36C21"/>
<path fill-rule="evenodd" clip-rule="evenodd" d="M17.1536 50.6699V57.3158C17.1536 57.9714 17.1547 58.6271 17.1558 59.2825C17.1585 60.9207 17.1611 62.5579 17.1471 64.1918C17.1304 64.2814 17.1339 64.3737 17.1575 64.4618C17.1811 64.5499 17.2241 64.6316 17.2833 64.7009C17.3425 64.7703 17.4166 64.8255 17.4999 64.8625C17.5832 64.8995 17.6738 64.9174 17.765 64.9149C18.4186 65.0141 19.0834 65.0141 19.7371 64.9149C19.8271 64.9101 19.9152 64.8869 19.9958 64.8467C20.0765 64.8065 20.1481 64.7501 20.206 64.681C20.264 64.612 20.3071 64.5317 20.3327 64.4453C20.3584 64.3589 20.3659 64.2681 20.355 64.1786V59.8926C20.355 59.5837 20.4273 59.4982 20.7494 59.4982C21.8703 59.5641 22.9949 59.4689 24.0888 59.2156C24.8927 58.9938 25.6315 58.5822 26.2432 58.0154C26.8548 57.4486 27.3214 56.7432 27.6036 55.9585C27.8857 55.1738 27.9753 54.3327 27.8647 53.5062C27.7541 52.6797 27.4466 51.8918 26.968 51.2089C26.5247 50.6624 25.9687 50.2179 25.338 49.906C24.7072 49.594 24.0165 49.4218 23.3131 49.4012C21.7118 49.2872 20.1057 49.2565 18.5012 49.3091C17.4955 49.296 17.1536 49.6509 17.1536 50.6699ZM20.3413 52.1223V54.3836C20.3413 55.1527 20.3347 55.9218 20.3215 56.6975C20.3231 56.725 20.3189 56.7575 20.3146 56.7911C20.3004 56.9023 20.2845 57.0262 20.4662 57.0262C20.6912 57.0196 20.9179 57.0253 21.1448 57.0311C21.8259 57.0484 22.5088 57.0657 23.1548 56.7501C23.7167 56.4049 24.1417 55.8756 24.3574 55.2524C24.5731 54.6292 24.5663 53.9505 24.338 53.3318C24.239 52.9625 24.0367 52.6291 23.755 52.3706C23.4732 52.1122 23.1236 51.9394 22.7472 51.8725C22.0644 51.7931 21.3768 51.7623 20.6897 51.7804C20.4136 51.7673 20.3413 51.8462 20.3413 52.1223Z" fill="#F36C21"/>
<path fill-rule="evenodd" clip-rule="evenodd" d="M21.1958 0.921105C20.9934 0.615885 20.7904 0.309722 20.591 0L20.4595 0.184061C19.4624 1.53773 18.6015 2.98658 17.8892 4.5095C17.5173 5.20894 17.4144 6.0204 17.6 6.79055C17.8022 7.47253 18.2293 8.06598 18.8118 8.47421C19.3943 8.88245 20.0979 9.08142 20.8079 9.03872C22.5696 8.95984 24.0553 7.01405 23.5425 5.3312C23.0457 3.71108 22.1274 2.32609 21.1958 0.921105ZM19.1644 7.49534C19.4098 7.73251 19.7005 7.91761 20.0192 8.03952C19.6535 7.54901 19.3385 7.02261 19.0792 6.46843C18.7877 5.91337 18.6238 5.30028 18.5993 4.67383C18.4642 4.98718 18.3939 5.32462 18.3926 5.66585C18.3913 6.00708 18.459 6.34505 18.5916 6.65945C18.7242 6.97385 18.9191 7.25818 19.1644 7.49534Z" fill="#D9D9D9"/>
<path fill-rule="evenodd" clip-rule="evenodd" d="M52.2328 11.865C52.0586 11.6033 51.8838 11.3409 51.711 11.0762C50.6433 12.5141 49.7269 14.0583 48.9763 15.6843C48.7196 16.1673 48.5981 16.7106 48.6247 17.257C48.6512 17.8033 48.8248 18.3324 49.1271 18.7882C49.4295 19.244 49.8493 19.6098 50.3423 19.8468C50.8352 20.0838 51.3831 20.1832 51.9279 20.1346C53.6896 20.0557 55.1818 18.1165 54.6691 16.4337C54.1618 14.7613 53.2054 13.3252 52.2328 11.865ZM50.2846 18.5754C50.5281 18.8106 50.8165 18.9943 51.1326 19.1157C50.3452 18.164 49.8518 17.0037 49.7127 15.7763C49.5808 16.0881 49.5131 16.4233 49.5134 16.7619C49.5138 17.1004 49.5822 17.4355 49.7147 17.747C49.8472 18.0586 50.041 18.3403 50.2846 18.5754Z" fill="#D9D9D9"/>
</svg>
