<svg width="24" height="24" viewBox="0 0 24 24" fill="none" xmlns="http://www.w3.org/2000/svg">
<path d="M12 0C18.6274 0 24 5.37258 24 12C24 18.6274 18.6274 24 12 24C5.37258 24 0 18.6274 0 12C0 5.37258 5.37258 0 12 0Z" fill="#7F4DA0"/>
<path d="M15.1971 10.4794C15.1387 10.0053 14.993 9.63298 14.7341 9.3032C14.3981 8.87856 13.9686 8.62428 13.3328 8.47344C12.9184 8.3729 12.751 8.38444 12.6011 8.52134C12.4615 8.6496 12.4342 8.90672 12.5409 9.07322C12.6159 9.19407 12.7025 9.23737 12.9432 9.28462C13.2638 9.34359 13.4853 9.42014 13.6868 9.53536C14.1145 9.78233 14.3137 10.1688 14.335 10.7945C14.345 11.0882 14.3704 11.1786 14.473 11.2828C14.6632 11.4732 15.0016 11.4362 15.1452 11.2082C15.1979 11.1223 15.2059 11.085 15.2115 10.8855C15.2151 10.762 15.2098 10.5781 15.1971 10.4794Z" fill="white"/>
<path d="M16.8723 11.0139C16.7878 9.56117 16.2196 8.39242 15.2028 7.57011C14.6298 7.10805 13.9373 6.79033 13.1781 6.63581C12.9001 6.58055 12.3881 6.53576 12.3002 6.56138C12.2174 6.58511 12.1001 6.67485 12.0479 6.75601C11.9926 6.84402 11.9802 7.04053 12.0273 7.15419C12.1034 7.3442 12.2449 7.41133 12.6413 7.44601C13.2523 7.49947 13.8826 7.71415 14.3588 8.03198C14.9025 8.39384 15.3346 8.88879 15.6142 9.4704C15.8558 9.97012 16.0044 10.6903 16.0002 11.3352C15.9989 11.5684 16.0349 11.7001 16.1287 11.7964C16.2703 11.9445 16.4766 11.9769 16.6588 11.8785C16.8606 11.7724 16.9079 11.586 16.8723 11.0139Z" fill="white"/>
<path d="M18.7261 16.6079C18.6977 16.5249 18.6314 16.3968 18.584 16.3233C18.2856 15.8727 16.6823 14.6179 15.8818 14.2075C15.4247 13.9727 15.086 13.8945 14.835 13.968C14.565 14.0439 14.4229 14.1696 13.9705 14.7317C13.7882 14.9571 13.601 15.1682 13.5513 15.2014C13.4281 15.2868 13.1866 15.3556 13.0161 15.3556C12.6205 15.3532 11.9029 15.097 11.3511 14.7602C10.9224 14.4993 10.373 14.032 9.95143 13.5695C9.45405 13.0263 9.11542 12.5472 8.84777 12.0064C8.50201 11.3114 8.41438 10.8868 8.55883 10.5761C8.59436 10.4978 8.64174 10.4148 8.66302 10.3887C8.68436 10.365 8.90699 10.1824 9.15327 9.98313C9.63644 9.59889 9.71458 9.51113 9.80458 9.24784C9.91825 8.91338 9.88749 8.57183 9.71222 8.22791C9.57722 7.96699 9.22434 7.39773 8.96857 7.03009C8.62989 6.54624 7.78676 5.51207 7.61858 5.37209C7.31544 5.12543 6.92707 5.08271 6.49836 5.24878C6.04604 5.42431 5.19815 6.10742 4.83578 6.58418C4.50895 7.01586 4.38347 7.32183 4.3645 7.72506C4.34794 8.05711 4.37635 8.19469 4.55161 8.61928C5.92288 11.9495 7.9691 14.6084 10.7804 16.7194C12.2487 17.8224 13.7716 18.662 15.3512 19.2361C16.2725 19.5705 16.6728 19.5871 17.1441 19.312C17.343 19.1933 17.8356 18.6881 18.1103 18.3205C18.5651 17.7085 18.7332 17.4263 18.7806 17.2009C18.8138 17.0468 18.7877 16.7787 18.7261 16.6079Z" fill="white"/>
<path d="M18.5777 11.3473C18.5474 10.5255 18.4091 9.85152 18.1206 9.10006C17.8357 8.36086 17.5475 7.8785 17.0031 7.22609C16.4884 6.61438 16.0887 6.26511 15.4546 5.87632C14.5701 5.33462 13.4936 4.97614 12.2872 4.82539C11.8758 4.7727 11.7827 4.77646 11.6565 4.86068C11.4119 5.02022 11.4152 5.41816 11.6605 5.57531C11.7417 5.6253 11.8138 5.64351 12.1429 5.68659C12.6481 5.7546 12.9729 5.8187 13.3584 5.92387C14.8699 6.33706 16.0323 7.18163 16.8093 8.43536C17.4597 9.48036 17.7296 10.5254 17.6913 11.8602C17.6779 12.3114 17.6876 12.3908 17.7566 12.4992C17.8887 12.7013 18.237 12.7413 18.4158 12.5736C18.5269 12.4714 18.5479 12.3947 18.5698 12.0085C18.5803 11.807 18.5826 11.5096 18.5777 11.3473Z" fill="white"/>
</svg>
