<svg width="22" height="18" viewBox="0 0 22 18" fill="none" xmlns="http://www.w3.org/2000/svg">
<path d="M20.5751 10.5049C20.4377 10.5049 20.3059 10.5595 20.2087 10.6566C20.1115 10.7538 20.057 10.8856 20.057 11.023V16.4634H1.03627V11.023C1.03627 10.8856 0.981678 10.7538 0.88451 10.6566C0.787341 10.5595 0.655551 10.5049 0.518134 10.5049C0.380716 10.5049 0.248927 10.5595 0.151758 10.6566C0.054589 10.7538 0 10.8856 0 11.023V16.4634C0 16.7383 0.109178 17.0018 0.303516 17.1962C0.497854 17.3905 0.761432 17.4997 1.03627 17.4997H20.057C20.3318 17.4997 20.5954 17.3905 20.7897 17.1962C20.984 17.0018 21.0932 16.7383 21.0932 16.4634V11.023C21.0932 10.8856 21.0386 10.7538 20.9415 10.6566C20.8443 10.5595 20.7125 10.5049 20.5751 10.5049Z" fill="#F36C21"/>
<path d="M10.5476 0.5C10.4101 0.5 10.2784 0.554589 10.1812 0.651757C10.084 0.748926 10.0294 0.880716 10.0294 1.01813V12.1062L6.26 8.32641C6.16278 8.22919 6.03092 8.17457 5.89342 8.17457C5.75593 8.17457 5.62407 8.22919 5.52684 8.32641C5.42962 8.42363 5.375 8.5555 5.375 8.69299C5.375 8.83049 5.42962 8.96235 5.52684 9.05957L10.19 13.7228C10.2382 13.7709 10.2953 13.8092 10.3582 13.8352C10.4211 13.8613 10.4885 13.8747 10.5566 13.8747C10.6247 13.8747 10.6921 13.8613 10.755 13.8352C10.8179 13.8092 10.8751 13.7709 10.9232 13.7228L15.5864 9.05957C15.6345 9.01143 15.6727 8.95428 15.6988 8.89138C15.7248 8.82848 15.7383 8.76107 15.7383 8.69299C15.7383 8.62491 15.7248 8.5575 15.6988 8.4946C15.6727 8.4317 15.6345 8.37455 15.5864 8.32641C15.5383 8.27827 15.4811 8.24008 15.4182 8.21403C15.3553 8.18798 15.2879 8.17457 15.2198 8.17457C15.1517 8.17457 15.0843 8.18798 15.0214 8.21403C14.9585 8.24008 14.9014 8.27827 14.8533 8.32641L11.0657 12.1062V1.01813C11.0657 0.880716 11.0111 0.748926 10.9139 0.651757C10.8168 0.554589 10.685 0.5 10.5476 0.5Z" fill="#F36C21"/>
</svg>
