<svg width="170" height="38" viewBox="0 0 170 38" fill="none" xmlns="http://www.w3.org/2000/svg">
<g clip-path="url(#clip0_3200_13893)">
<path fill-rule="evenodd" clip-rule="evenodd" d="M90.2556 14.2774C90.4787 14.2654 90.7013 14.3092 90.9033 14.4048C91.1052 14.5004 91.28 14.6448 91.412 14.8249C91.544 15.005 91.6289 15.2152 91.6591 15.4363C91.6893 15.6575 91.6638 15.8827 91.5849 16.0915L89.6385 23.3449C89.4901 23.8475 89.1891 24.2917 88.777 24.616C88.365 24.9403 87.8622 25.1287 87.3383 25.1552H82.5734C81.97 27.4071 80.8135 31.676 80.2002 33.9712H81.1764L77.1634 37.9992L75.4528 33.9712H76.5691L79.4316 23.3464C79.5792 22.8431 79.8799 22.398 80.2921 22.073C80.7042 21.7479 81.2074 21.559 81.7319 21.5323H86.4959C86.8611 20.1704 87.1046 19.263 87.4676 17.9041H80.344L82.2303 14.2789L90.2556 14.2774ZM78.7803 14.2774C79.5465 11.4236 82.6084 0 82.6084 0H78.9797L74.6638 16.0907C74.5854 16.2994 74.5603 16.5242 74.5906 16.745C74.621 16.9657 74.706 17.1755 74.8378 17.3553C74.9696 17.5351 75.1442 17.6792 75.3457 17.7748C75.5473 17.8703 75.7695 17.9142 75.9923 17.9026H79.074L80.9641 14.2774H78.7803Z" fill="white"/>
<path fill-rule="evenodd" clip-rule="evenodd" d="M71.9671 18.0178C71.966 16.5969 72.248 15.1899 72.7967 13.8788C73.3454 12.5678 74.1497 11.3789 75.1629 10.3814L76.3674 5.88672C74.1509 7.04725 72.2941 8.79076 70.9977 10.9288C69.7012 13.0669 69.0145 15.5182 69.0117 18.0178C69.0146 20.55 69.7195 23.0319 71.0482 25.1884C72.3769 27.345 74.2775 29.0919 76.5394 30.2356C76.7814 29.3396 77.0583 28.3136 77.3262 27.3081C75.6972 26.3633 74.3449 25.0081 73.4045 23.3778C72.4641 21.7475 71.9684 19.8993 71.9671 18.0178Z" fill="white"/>
<path fill-rule="evenodd" clip-rule="evenodd" d="M82.7353 7.25934C85.5912 7.26276 88.3292 8.39727 90.3489 10.4141C92.3685 12.4309 93.505 15.1654 93.509 18.0179C93.5058 20.8709 92.3697 23.6062 90.35 25.6237C88.3302 27.6412 85.5918 28.7761 82.7353 28.7795C82.6372 28.7795 82.542 28.7651 82.4477 28.7651C82.1692 29.7979 81.8831 30.8558 81.6639 31.6721C82.0185 31.704 82.3739 31.7283 82.7353 31.7283C86.3746 31.7245 89.8638 30.2787 92.4371 27.7084C95.0104 25.138 96.4577 21.6529 96.4614 18.0179C96.4571 14.3834 95.0096 10.899 92.4363 8.3292C89.863 5.75942 86.3742 4.31417 82.7353 4.31055C82.5831 4.31055 82.4424 4.32803 82.2932 4.33335C82.0284 5.32135 81.753 6.34127 81.4844 7.33763C81.8995 7.28772 82.3172 7.26157 82.7353 7.25934Z" fill="white"/>
<path fill-rule="evenodd" clip-rule="evenodd" d="M0 26.2688L2.22946 10.3438H5.17494L3.34496 23.4112H8.22314L7.82367 26.2688H0Z" fill="white"/>
<path fill-rule="evenodd" clip-rule="evenodd" d="M16.7707 23.7984C18.3005 23.8075 19.7762 23.2338 20.8972 22.194C22.0525 21.2074 22.8054 19.8319 23.0132 18.3279C23.1337 17.6537 23.1029 16.9612 22.9232 16.3003C22.7435 15.6394 22.4192 15.0265 21.9738 14.5059C21.5241 13.9822 20.9611 13.5675 20.3273 13.2931C19.6935 13.0187 19.0055 12.8918 18.3154 12.922C16.7925 12.9099 15.322 13.4761 14.2012 14.5059C13.0555 15.4793 12.3086 16.8397 12.1026 18.3279C11.9783 19.0092 12.0052 19.7094 12.1815 20.3791C12.3579 21.0489 12.6792 21.6718 13.123 22.2039C13.5681 22.7311 14.1285 23.1491 14.7609 23.4258C15.3934 23.7025 16.081 23.8305 16.7707 23.7999V23.7984ZM18.7149 10.0652C19.7774 10.0193 20.8366 10.2142 21.8129 10.6354C22.7893 11.0566 23.6575 11.6931 24.3524 12.4972C25.0388 13.301 25.5382 14.2469 25.8145 15.2667C26.0908 16.2866 26.1372 17.3549 25.9503 18.3948C25.6357 20.6872 24.4737 22.7791 22.6929 24.2589C20.9652 25.8144 18.7185 26.6699 16.3926 26.6583C15.3307 26.7048 14.2719 26.5134 13.2937 26.0983C12.3154 25.6831 11.4426 25.0547 10.739 24.2589C10.0476 23.465 9.54529 22.5249 9.26985 21.5092C8.99441 20.4935 8.953 19.4287 9.14872 18.3948C9.46513 16.098 10.6181 13.9982 12.3872 12.4972C14.1141 10.9185 16.3746 10.0498 18.7156 10.0652H18.7149Z" fill="white"/>
<path fill-rule="evenodd" clip-rule="evenodd" d="M33.8673 18.1543H44.2469C43.9272 20.5115 42.785 22.6805 41.0214 24.2791C39.2629 25.8653 36.9619 26.7165 34.5932 26.6572C33.5211 26.7119 32.4498 26.5334 31.4535 26.1341C30.4571 25.7348 29.5595 25.1242 28.8225 24.3445C28.1181 23.5457 27.6086 22.5947 27.3342 21.5661C27.0597 20.5376 27.0277 19.4595 27.2406 18.4165C27.5461 16.0865 28.7216 13.9578 30.5315 12.4566C32.2802 10.9059 34.5406 10.055 36.879 10.0671C38.5137 10.0106 40.1242 10.4737 41.4787 11.3895C42.7125 12.2614 43.5753 13.5626 43.8976 15.0375H40.3617C40.0378 14.3552 39.4982 13.7981 38.8262 13.4522C38.0976 13.0867 37.2908 12.9041 36.4757 12.9202C34.9476 12.9005 33.466 13.445 32.3151 14.4493C31.1483 15.422 30.3931 16.7996 30.2013 18.3055C30.0795 18.9784 30.1031 19.6694 30.2702 20.3325C30.4374 20.9956 30.7444 21.6153 31.1707 22.1504C31.645 22.713 32.246 23.1555 32.9245 23.4416C33.6029 23.7277 34.3396 23.8493 35.0741 23.7965C36.0769 23.8135 37.0671 23.5716 37.9488 23.0943C38.8683 22.5949 39.6243 21.8416 40.1266 20.9245H33.4785L33.8673 18.1543Z" fill="white"/>
<path fill-rule="evenodd" clip-rule="evenodd" d="M45.0938 26.2688L47.324 10.3438H50.2687L48.0392 26.2688H45.0938Z" fill="white"/>
<path fill-rule="evenodd" clip-rule="evenodd" d="M67.5489 14.9075H64.1887C63.7935 14.2936 63.2497 13.7891 62.6076 13.4407C61.9463 13.0918 61.2081 12.9139 60.4603 12.9231C58.9322 12.9066 57.458 13.4863 56.3514 14.5389C55.2383 15.5104 54.5096 16.8474 54.2969 18.3085C54.1758 18.992 54.205 19.6936 54.3824 20.3647C54.5598 21.0358 54.8811 21.6604 55.3241 22.1951C55.7621 22.7277 56.3191 23.1503 56.9502 23.4289C57.5813 23.7075 58.2691 23.8345 58.9582 23.7995C59.7025 23.797 60.4385 23.6434 61.1215 23.3481C61.86 23.026 62.5193 22.547 63.0534 21.9443H66.4775C65.6291 23.3504 64.4547 24.5322 63.0534 25.3902C61.6745 26.2317 60.0872 26.6708 58.4713 26.6579C57.4215 26.7043 56.3749 26.5115 55.4109 26.0941C54.4468 25.6767 53.5904 25.0456 52.9067 24.2487C52.2248 23.4345 51.7315 22.4799 51.4621 21.4531C51.1927 20.4264 51.1539 19.3528 51.3484 18.3093C51.6627 16.0347 52.8094 13.957 54.567 12.477C56.2783 10.9138 58.5171 10.0531 60.8362 10.0671C62.353 10.0258 63.8426 10.4747 65.0835 11.3469C66.2818 12.2241 67.1501 13.4781 67.5489 14.9075Z" fill="white"/>
<path fill-rule="evenodd" clip-rule="evenodd" d="M102.744 13.2013L102.157 17.3912H103.907C104.589 17.4261 105.265 17.2444 105.837 16.8721C106.086 16.6842 106.293 16.4474 106.446 16.1765C106.599 15.9055 106.695 15.6061 106.728 15.2967C106.795 15.0199 106.789 14.7308 106.713 14.4567C106.636 14.1826 106.491 13.9326 106.29 13.7303C105.778 13.3377 105.139 13.1482 104.495 13.1983L102.744 13.2013ZM97.9688 26.2688L100.199 10.3438H104.659C106.48 10.3579 107.825 10.8066 108.691 11.6897C109.133 12.1724 109.452 12.7536 109.622 13.3847C109.792 14.0158 109.809 14.6784 109.67 15.3172C109.501 16.7053 108.806 17.9762 107.728 18.8687C106.455 19.8486 104.872 20.3384 103.267 20.2488H101.757L100.914 26.2688H97.9688Z" fill="white"/>
<path fill-rule="evenodd" clip-rule="evenodd" d="M117.97 23.7984C119.499 23.8076 120.975 23.2338 122.096 22.1941C123.251 21.2076 124.004 19.8319 124.212 18.3279C124.333 17.6537 124.302 16.9612 124.122 16.3003C123.943 15.6393 123.618 15.0265 123.173 14.5059C122.723 13.9822 122.16 13.5675 121.526 13.2931C120.892 13.0187 120.204 12.8918 119.514 12.9221C117.991 12.9104 116.521 13.4765 115.4 14.5059C114.255 15.4794 113.508 16.8399 113.302 18.3279C113.178 19.0092 113.205 19.7094 113.381 20.3791C113.557 21.0488 113.878 21.6718 114.322 22.2039C114.767 22.7312 115.328 23.1493 115.96 23.426C116.593 23.7027 117.28 23.8306 117.97 23.7999L117.97 23.7984ZM119.914 10.0652C120.976 10.0191 122.035 10.214 123.012 10.6352C123.988 11.0564 124.856 11.693 125.551 12.4972C126.238 13.3009 126.737 14.2468 127.014 15.2667C127.29 16.2865 127.336 17.3549 127.149 18.3948C126.835 20.6867 125.674 22.7783 123.894 24.259C122.166 25.8141 119.919 26.6696 117.592 26.6583C116.53 26.7047 115.472 26.5133 114.493 26.0982C113.515 25.683 112.642 25.0546 111.939 24.259C111.247 23.4653 110.744 22.5251 110.469 21.5094C110.193 20.4937 110.152 19.4288 110.348 18.3948C110.665 16.0981 111.817 13.9984 113.586 12.4972C115.313 10.9185 117.573 10.0498 119.914 10.0652H119.914Z" fill="white"/>
<path fill-rule="evenodd" clip-rule="evenodd" d="M130.547 26.2688L128.156 10.3438H131.124L132.341 21.4922L136.619 10.3438H138.772L139.925 21.4922L144.262 10.3438H147.23L140.382 26.2688H138.108L136.961 15.5915L132.822 26.2688H130.547Z" fill="white"/>
<path fill-rule="evenodd" clip-rule="evenodd" d="M146.609 26.2688L148.84 10.3438H157.394L156.995 13.2013H151.386L150.868 16.8911H156.241L155.841 19.748H150.468L149.954 23.4112H155.561L155.16 26.2688H146.609Z" fill="white"/>
<path fill-rule="evenodd" clip-rule="evenodd" d="M162.588 13.2013L161.924 17.9445H163.674C164.46 17.9767 165.239 17.7783 165.914 17.3737C166.213 17.1713 166.463 16.9045 166.645 16.5929C166.827 16.2813 166.937 15.9329 166.966 15.5733C167.039 15.2521 167.026 14.9174 166.927 14.6032C166.828 14.289 166.648 14.0064 166.405 13.7843C165.804 13.3558 165.073 13.1497 164.337 13.2013H162.588ZM157.812 26.2688L160.043 10.3438H164.655C166.58 10.3438 167.996 10.7959 168.904 11.7003C169.364 12.1882 169.698 12.7805 169.878 13.426C170.058 14.0715 170.078 14.7511 169.937 15.4061C169.764 16.6885 169.176 17.8794 168.263 18.7972C167.386 19.7255 166.197 20.297 164.923 20.4016L168.584 26.2688H164.999L161.679 20.4016H161.577L160.755 26.2688H157.812Z" fill="white"/>
</g>
<defs>
<clipPath id="clip0_3200_13893">
<rect width="170" height="38" fill="white"/>
</clipPath>
</defs>
</svg>
